<svg width="4331" height="2205" xmlns="http://www.w3.org/2000/svg" xmlns:xlink="http://www.w3.org/1999/xlink" xml:space="preserve" overflow="hidden"><g transform="translate(-32 -36)"><g><rect x="68.0001" y="440" width="1147" height="1712" fill="#E8E8E8" fill-opacity="1"/><rect x="150" y="918" width="442" height="432" fill="#1787B3" fill-opacity="1"/><rect x="153" y="1391" width="442" height="431" fill="#1787B3" fill-opacity="1"/><path d="M592.5 1131.06 667.926 1131.06 667.926 1137.94 592.5 1137.94ZM663.343 1120.75 690.843 1134.5 663.343 1148.25Z" fill="#1787B3" fill-rule="nonzero" fill-opacity="1"/><path d="M589.5 1603.06 667.663 1603.06 667.663 1609.94 589.5 1609.94ZM663.08 1592.75 690.58 1606.5 663.08 1620.25Z" fill="#1787B3" fill-rule="nonzero" fill-opacity="1"/><text fill="#334C66" fill-opacity="1" font-family="Calibri,Calibri_MSFontService,sans-serif" font-style="normal" font-variant="normal" font-weight="700" font-stretch="normal" font-size="73" text-anchor="start" direction="ltr" writing-mode="lr-tb" unicode-bidi="normal" text-decoration="none" transform="matrix(1 0 0 1 461.586 2124)">Scenarios</text><g><g><g><path d="M132.688 152.792 132.688 71.7317 137.191 76.2351 142.901 70.5255 132.688 60.3126 128.667 56.2917 124.646 60.3126 122.957 62.0013 114.433 70.5255 120.143 76.2351 124.646 71.7317 124.646 152.792 99.3951 152.792 99.3951 80.4167 91.3534 80.4167 91.3534 152.792 68.3542 152.792 68.3542 104.542 60.3126 104.542 60.3126 152.792 40.2084 152.792 40.2084 32.1667 32.1667 32.1667 32.1667 152.792 32.1667 160.833 40.2084 160.833 160.833 160.833 160.833 152.792Z" fill="#FFFFFF" fill-rule="nonzero" fill-opacity="0.4" transform="matrix(1 0 0 1.02072 282 1550)"/><path d="M60.3126 88.4584 68.3542 88.4584 68.3542 80.4167C75.0288 80.4167 80.4167 75.0288 80.4167 68.3542 80.4167 66.9067 80.1755 65.6201 79.693 64.3334 78.0847 59.6692 73.5813 56.2917 68.3542 56.2917L60.3126 56.2917C58.0609 56.2917 56.2917 54.5226 56.2917 52.2709 56.2917 50.0192 58.0609 48.25 60.3126 48.25L68.3542 48.25 80.4167 48.25 80.4167 40.2084 68.3542 40.2084 68.3542 32.1667 60.3126 32.1667 60.3126 40.2084C53.638 40.2084 48.25 45.5963 48.25 52.2709 48.25 53.7184 48.4913 55.0051 48.9738 56.2917 50.5821 60.9559 55.0855 64.3334 60.3126 64.3334L68.3542 64.3334C70.5255 64.3334 72.3751 66.1026 72.3751 68.3542 72.3751 70.6059 70.5255 72.3751 68.3542 72.3751L60.3126 72.3751 48.25 72.3751 48.25 80.4167 60.3126 80.4167 60.3126 88.4584Z" fill="#FFFFFF" fill-rule="nonzero" fill-opacity="0.4" transform="matrix(1 0 0 1.02072 282 1550)"/></g></g></g><text fill="#FFFFFF" fill-opacity="1" font-family="Calibri,Calibri_MSFontService,sans-serif" font-style="normal" font-variant="normal" font-weight="400" font-stretch="normal" font-size="50" text-anchor="start" direction="ltr" writing-mode="lr-tb" unicode-bidi="normal" text-decoration="none" transform="matrix(1 0 0 1 227.066 1501)">Maximize NPV</text><text fill="#FFFFFF" fill-opacity="1" font-family="Calibri,Calibri_MSFontService,sans-serif" font-style="normal" font-variant="normal" font-weight="400" font-stretch="normal" font-size="50" text-anchor="start" direction="ltr" writing-mode="lr-tb" unicode-bidi="normal" text-decoration="none" transform="matrix(1 0 0 1 226.791 1036)">Minimize TCO</text><g><g><g><path d="M41.25 156.75 41.25 33 33 33 33 165 37.125 165 41.25 165 165 165 165 156.75Z" fill="#FFFFFF" fill-rule="nonzero" fill-opacity="0.4" transform="matrix(1 0 0 1.02525 282 1070)"/><path d="M140.25 136.208 140.993 136.208 133.402 143.798 139.178 149.572 150.893 137.94 153.533 135.217 153.615 135.217 156.667 132.083 151.717 127.132 150.893 126.308 139.178 114.593 133.402 120.45 140.91 127.958 140.25 127.958C94.71 127.958 57.75 90.915 57.75 45.4575L49.5 45.4575C49.5 95.535 90.09 136.208 140.25 136.208Z" fill="#FFFFFF" fill-rule="nonzero" fill-opacity="0.4" transform="matrix(1 0 0 1.02525 282 1070)"/></g></g></g><text fill="#000000" fill-opacity="1" font-family="Calibri,Calibri_MSFontService,sans-serif" font-style="normal" font-variant="normal" font-weight="400" font-stretch="normal" font-size="55" text-anchor="start" direction="ltr" writing-mode="lr-tb" unicode-bidi="normal" text-decoration="none" transform="matrix(1 0 0 1 763.261 727)">Parameters</text><rect x="692" y="783" width="432" height="1154" fill="#334C66" fill-opacity="1"/><g><g><g><path d="M142.966 98.1063C142.966 113.386 137.038 127.768 126.268 138.609L123.735 141.157 113.138 130.442 118.204 125.432 123.66 130.95C130.761 122.726 134.766 112.515 135.527 101.671L128.049 101.671 128.049 94.5451 135.661 94.5451C134.864 83.2502 130.342 72.9902 123.292 64.9651L117.994 70.1724 112.998 65.0929 118.235 59.9466C110.271 53.1051 100.164 48.732 89.0627 47.9483L89.0627 55.1289 81.9372 55.1289 81.9372 47.9483C70.6304 48.7454 60.3615 53.2776 52.3319 60.3377L57.3414 65.3502 52.3036 70.388 47.3149 65.3963C40.4853 73.356 36.1196 83.4568 35.339 94.5465L42.5135 94.5465 42.5135 101.672 35.333 101.672C36.1642 111.944 40.518 122.226 47.6911 130.708L52.778 125.774 57.7325 130.895 47.4279 140.887 44.9506 138.306C34.2 127.111 28.0351 112.464 28.0351 98.1093 28.0351 66.4223 53.8144 40.6429 85.5014 40.6429 117.188 40.6429 142.968 66.4223 142.968 98.1093ZM109.887 79.3826 97.8402 91.36C98.945 93.3733 99.6319 95.6514 99.6319 98.1063 99.6319 105.899 93.293 112.238 85.4999 112.238 77.7068 112.238 71.3679 105.899 71.3679 98.1063 71.3679 90.3132 77.7068 83.9743 85.4999 83.9743 88.2478 83.9743 90.795 84.7951 92.9674 86.1572L104.865 74.3299 109.887 79.3811ZM92.5064 98.1063C92.5064 94.2447 89.3615 91.0998 85.4999 91.0998 81.6383 91.0998 78.4934 94.2447 78.4934 98.1063 78.4934 101.968 81.6383 105.113 85.4999 105.113 89.3615 105.113 92.5064 101.968 92.5064 98.1063Z" fill="#FFFFFF" fill-rule="nonzero" fill-opacity="0.4" transform="matrix(1 0 0 1.00585 825 1696)"/></g></g></g><g><g><g><path d="M36.5625 10.9687 36.5625 18.2812 80.4374 18.2812 80.4374 10.9687 87.7499 10.9687 87.7499 18.2812 109.687 18.2812 109.687 102.375 7.31249 102.375 7.31249 18.2812 29.25 18.2812 29.25 10.9687 36.5625 10.9687ZM102.375 47.5312 14.625 47.5312 14.625 95.0624 102.375 95.0624 102.375 47.5312ZM40.2187 76.7812 40.2187 84.0937 25.5937 84.0937 25.5937 76.7812 40.2187 76.7812ZM65.8124 76.7812 65.8124 84.0937 51.1874 84.0937 51.1874 76.7812 65.8124 76.7812ZM91.4062 76.7812 91.4062 84.0937 76.7812 84.0937 76.7812 76.7812 91.4062 76.7812ZM40.2187 58.4999 40.2187 65.8124 25.5937 65.8124 25.5937 58.4999 40.2187 58.4999ZM65.8124 58.4999 65.8124 65.8124 51.1874 65.8124 51.1874 58.4999 65.8124 58.4999ZM91.4062 58.4999 91.4062 65.8124 76.7812 65.8124 76.7812 58.4999 91.4062 58.4999ZM29.25 25.5937 14.625 25.5937 14.625 40.2187 102.375 40.2187 102.375 25.5937 87.7499 25.5937 87.7499 32.9062 80.4374 32.9062 80.4374 25.5937 36.5625 25.5937 36.5625 32.9062 29.25 32.9062 29.25 25.5937Z" fill="#FFFFFF" fill-rule="evenodd" fill-opacity="0.4" transform="matrix(1 0 0 1.03419 846 1358)"/></g></g></g><g><g><g><path d="M134 29.3124 134 104.687 0 104.687 0 29.3124 134 29.3124ZM104.687 37.6874 29.3124 37.6874C29.3124 49.2533 19.9325 58.6249 8.37498 58.6249L8.37498 75.3748C19.9325 75.3748 29.3124 84.7464 29.3124 96.3123L104.687 96.3123C104.687 84.7464 114.067 75.3748 125.625 75.3748L125.625 58.6249C114.067 58.6249 104.687 49.2533 104.687 37.6874ZM125.625 83.7498C118.699 83.7498 113.062 89.3862 113.062 96.3123L125.625 96.3123 125.625 83.7498ZM8.37498 83.7498 8.37498 96.3123 20.9375 96.3123C20.9375 89.3862 15.3011 83.7498 8.37498 83.7498ZM66.9999 46.0624C78.5657 46.0624 87.9373 55.434 87.9373 66.9999 87.9373 78.5657 78.5657 87.9373 66.9999 87.9373 55.434 87.9373 46.0624 78.5657 46.0624 66.9999 46.0624 55.434 55.434 46.0624 66.9999 46.0624ZM66.9999 54.4374C60.0737 54.4374 54.4374 60.0737 54.4374 66.9999 54.4374 73.926 60.0737 79.5623 66.9999 79.5623 73.926 79.5623 79.5623 73.926 79.5623 66.9999 79.5623 60.0737 73.926 54.4374 66.9999 54.4374ZM125.625 37.6874 113.062 37.6874C113.062 44.6135 118.699 50.2499 125.625 50.2499L125.625 37.6874ZM20.9375 37.6874 8.37498 37.6874 8.37498 50.2499C15.3011 50.2499 20.9375 44.6135 20.9375 37.6874Z" fill="#FFFFFF" fill-rule="evenodd" fill-opacity="0.4" transform="matrix(1 0 0 1.01493 840 949)"/></g></g></g><text fill="#FFFFFF" fill-opacity="1" font-family="Calibri,Calibri_MSFontService,sans-serif" font-style="normal" font-variant="normal" font-weight="400" font-stretch="normal" font-size="50" text-anchor="start" direction="ltr" writing-mode="lr-tb" unicode-bidi="normal" text-decoration="none" transform="matrix(1 0 0 1 834.119 919)">Budget</text><text fill="#FFFFFF" fill-opacity="1" font-family="Calibri,Calibri_MSFontService,sans-serif" font-style="normal" font-variant="normal" font-weight="400" font-stretch="normal" font-size="50" text-anchor="start" direction="ltr" writing-mode="lr-tb" unicode-bidi="normal" text-decoration="none" transform="matrix(1 0 0 1 754.646 1681)">Demand / user</text><text fill="#FFFFFF" fill-opacity="1" font-family="Calibri,Calibri_MSFontService,sans-serif" font-style="normal" font-variant="normal" font-weight="400" font-stretch="normal" font-size="50" text-anchor="start" direction="ltr" writing-mode="lr-tb" unicode-bidi="normal" text-decoration="none" transform="matrix(1 0 0 1 749.902 1306)">Planning p</text><text fill="#FFFFFF" fill-opacity="1" font-family="Calibri,Calibri_MSFontService,sans-serif" font-style="normal" font-variant="normal" font-weight="400" font-stretch="normal" font-size="50" text-anchor="start" direction="ltr" writing-mode="lr-tb" unicode-bidi="normal" text-decoration="none" transform="matrix(1 0 0 1 963.027 1306)">eriod</text><path d="M690.5 1168.5 1124.21 1168.5" stroke="#E8E8E8" stroke-width="4.58333" stroke-linecap="butt" stroke-linejoin="miter" stroke-miterlimit="8" stroke-opacity="0.501961" fill="none" fill-rule="evenodd"/><path d="M690.5 1553.5 1124.21 1553.5" stroke="#E8E8E8" stroke-width="4.58333" stroke-linecap="butt" stroke-linejoin="miter" stroke-miterlimit="8" stroke-opacity="0.501961" fill="none" fill-rule="evenodd"/><rect x="1326" y="440" width="1422" height="1712" fill="#E8E8E8" fill-opacity="1"/><rect x="1385" y="648" width="396" height="342" fill="#1787B3" fill-opacity="1"/><rect x="1384" y="1024" width="396" height="327" fill="#1787B3" fill-opacity="1"/><rect x="1383" y="1384" width="396" height="351" fill="#1787B3" fill-opacity="1"/><rect x="1385" y="1766" width="397" height="312" fill="#1787B3" fill-opacity="1"/><g><g><g><path d="M82.9387 72.8025C92.1187 72.1012 101.171 70.5075 109.969 67.9575 111.69 70.5712 114.622 72.2925 117.937 72.2925 123.229 72.2925 127.5 68.0212 127.5 62.73 127.5 57.4387 123.229 53.1675 117.937 53.1675 113.029 53.1675 108.949 56.9287 108.502 61.71 100.151 64.1325 91.6087 65.6625 82.9387 66.3637L82.9387 62.3475C95.37 59.9887 106.462 53.6775 114.877 44.115 115.834 44.4337 116.917 44.6887 118.001 44.6887 123.292 44.6887 127.564 40.4175 127.564 35.1262 127.564 29.835 123.292 25.5637 118.001 25.5637 112.71 25.5637 108.375 29.835 108.375 35.1262 108.375 36.975 108.949 38.6962 109.841 40.1625 102.701 48.195 93.33 53.6137 82.9387 55.845L82.9387 50.8725 70.125 50.8725 70.125 44.4975 25.5 44.4975 25.5 108.247 70.125 108.247 70.125 101.872 82.9387 101.872 82.9387 96.3262C93.5212 98.5575 103.02 104.167 110.16 112.391 109.076 113.921 108.375 115.834 108.375 117.874 108.375 123.165 112.646 127.436 117.937 127.436 123.229 127.436 127.5 123.165 127.5 117.874 127.5 112.582 123.229 108.311 117.937 108.311 117.045 108.311 116.216 108.502 115.387 108.694 106.972 98.8125 95.625 92.2462 82.9387 89.8237L82.9387 85.8075C91.6087 86.5087 100.151 88.0387 108.439 90.4612 108.502 95.6887 112.774 99.8962 118.001 99.8962 123.292 99.8962 127.564 95.625 127.564 90.3337 127.564 85.0425 123.292 80.7712 118.001 80.7712 114.941 80.7712 112.264 82.2375 110.542 84.405 101.554 81.7912 92.31 80.1337 83.0025 79.4325L83.0025 72.8025ZM117.937 59.5425C119.722 59.5425 121.125 60.945 121.125 62.73 121.125 64.515 119.722 65.9175 117.937 65.9175 116.152 65.9175 114.75 64.4512 114.75 62.73 114.75 61.0087 116.216 59.5425 117.937 59.5425ZM117.937 31.9387C119.722 31.9387 121.125 33.3412 121.125 35.1262 121.125 36.9112 119.722 38.3137 117.937 38.3137 116.152 38.3137 114.75 36.9112 114.75 35.1262 114.75 33.3412 116.216 31.9387 117.937 31.9387ZM121.125 117.874C121.125 119.659 119.722 121.061 117.937 121.061 116.152 121.061 114.75 119.659 114.75 117.874 114.75 116.089 116.152 114.686 117.937 114.686 119.722 114.686 121.125 116.089 121.125 117.874ZM117.937 87.0825C119.722 87.0825 121.125 88.485 121.125 90.27 121.125 92.055 119.722 93.4575 117.937 93.4575 116.152 93.4575 114.75 92.055 114.75 90.27 114.75 88.485 116.216 87.0825 117.937 87.0825ZM31.875 101.872 31.875 50.8725 63.75 50.8725 63.75 101.872 31.875 101.872ZM76.5637 95.4975 70.125 95.4975 70.125 57.2475 76.5637 57.2475 76.5637 95.4975Z" fill="#FFFFFF" fill-rule="nonzero" fill-opacity="0.4" transform="matrix(1 0 0 1.06536 1508 770)"/></g></g></g><g><g><g><path d="M78.8512 27.0308 85.6429 27.0308 85.6429 136.037 78.8512 136.037Z" fill="#FFFFFF" fill-rule="nonzero" fill-opacity="0.4" transform="matrix(1 0 0 1.06135 1500 1135)"/><path d="M92.3666 34.0262 99.1583 34.0262 99.1583 67.9846 92.3666 67.9846Z" fill="#FFFFFF" fill-rule="nonzero" fill-opacity="0.4" transform="matrix(1 0 0 1.06135 1500 1135)"/><path d="M65.2679 34.0262 72.0596 34.0262 72.0596 67.9846 65.2679 67.9846Z" fill="#FFFFFF" fill-rule="nonzero" fill-opacity="0.4" transform="matrix(1 0 0 1.06135 1500 1135)"/><path d="M107.037 38.5767 102.215 43.3987C104.456 45.3004 105.882 48.0171 105.882 51.2091 105.882 54.4012 104.388 57.1858 102.079 59.0875L106.901 63.9096C110.432 60.7854 112.674 56.3029 112.674 51.2091 112.742 46.1154 110.5 41.6329 107.037 38.5767Z" fill="#FFFFFF" fill-rule="nonzero" fill-opacity="0.4" transform="matrix(1 0 0 1.06135 1500 1135)"/><path d="M117.564 31.1737 112.742 35.9958C116.817 39.7312 119.465 45.0287 119.465 51.0054 119.465 57.05 116.817 62.3475 112.606 66.0829L117.428 70.905C122.793 65.9471 126.257 58.8837 126.257 51.0054 126.257 43.1271 122.929 36.1317 117.564 31.1737Z" fill="#FFFFFF" fill-rule="nonzero" fill-opacity="0.4" transform="matrix(1 0 0 1.06135 1500 1135)"/><path d="M62.0758 43.3308 57.3216 38.5767C53.8579 41.6329 51.6166 46.1154 51.6166 51.1412 51.6166 56.235 53.8579 60.7175 57.3896 63.8416L62.2116 59.0196C59.9025 57.1179 58.4083 54.3333 58.4083 51.1412 58.4083 48.0171 59.8346 45.2325 62.0758 43.3308Z" fill="#FFFFFF" fill-rule="nonzero" fill-opacity="0.4" transform="matrix(1 0 0 1.06135 1500 1135)"/><path d="M51.6166 35.9958 46.7946 31.1737C41.4291 36.1317 38.1012 43.1271 38.1012 51.0054 38.1012 58.8837 41.565 65.9471 46.9304 70.905L51.7525 66.0829C47.5416 62.3475 44.8929 56.9821 44.8929 51.0054 44.8929 45.0287 47.4737 39.7312 51.6166 35.9958Z" fill="#FFFFFF" fill-rule="nonzero" fill-opacity="0.4" transform="matrix(1 0 0 1.06135 1500 1135)"/></g></g></g><text fill="#FFFFFF" fill-opacity="1" font-family="Calibri,Calibri_MSFontService,sans-serif" font-style="normal" font-variant="normal" font-weight="400" font-stretch="normal" font-size="50" text-anchor="start" direction="ltr" writing-mode="lr-tb" unicode-bidi="normal" text-decoration="none" transform="matrix(1 0 0 1 1530.17 740)">Fiber</text><g><g><g><path d="M100.7 82.0836 93.6774 89.1061 88.9736 84.4024 117.064 56.3124 103.019 42.2674 74.9287 70.3574 70.2249 65.6537 77.2474 58.6312 44.3874 25.8375 25.6387 44.5862 58.4324 77.3799 65.4549 70.3574 70.1587 75.0612 51.2774 93.9424 55.9812 98.6461 51.0787 103.549C47.6337 101.097 43.6587 99.8386 39.6175 99.8386 34.5162 99.8386 29.415 101.76 25.5725 105.669 25.5725 105.669 25.5725 105.669 25.5725 105.669L37.2987 117.395 27.9575 126.736 32.6612 131.44 42.0024 122.099 53.7287 133.825C53.7287 133.825 53.7287 133.825 53.7287 133.825 60.6849 126.869 61.3474 116.07 55.8487 108.319L60.7512 103.416 65.4549 108.12 84.3361 89.2386 89.0399 93.9424 82.0174 100.965 114.811 133.759 133.56 115.01 100.7 82.0836ZM44.3874 35.1787 53.7287 44.5199 44.3874 53.9274 35.0462 44.5862 44.3874 35.1787ZM49.1574 58.6974 58.4987 49.3562 67.8399 58.6974 58.4987 68.0387 49.1574 58.6974ZM52.4037 123.159 36.1725 106.927C37.2987 106.662 38.425 106.464 39.6175 106.464 43.1287 106.464 46.5074 107.855 48.9587 110.372 51.4762 112.89 52.8674 116.202 52.8674 119.714 52.8674 120.84 52.6687 122.032 52.4037 123.159ZM60.6849 93.9424 102.952 51.6749 107.656 56.3787 65.3887 98.6461 60.6849 93.9424ZM100.7 91.4911 110.041 100.832 100.7 110.174 91.3586 100.832 100.7 91.4911ZM105.404 114.944 114.745 105.602 124.086 114.944 114.745 124.285 105.404 114.944Z" fill="#FFFFFF" fill-rule="nonzero" fill-opacity="0.4" transform="matrix(1 0 0 1.0629 1510 1866)"/></g></g></g><text fill="#FFFFFF" fill-opacity="1" font-family="Calibri,Calibri_MSFontService,sans-serif" font-style="normal" font-variant="normal" font-weight="400" font-stretch="normal" font-size="50" text-anchor="start" direction="ltr" writing-mode="lr-tb" unicode-bidi="normal" text-decoration="none" transform="matrix(1 0 0 1 1503.68 1115)">Cellular</text><text fill="#FFFFFF" fill-opacity="1" font-family="Calibri,Calibri_MSFontService,sans-serif" font-style="normal" font-variant="normal" font-weight="400" font-stretch="normal" font-size="50" text-anchor="start" direction="ltr" writing-mode="lr-tb" unicode-bidi="normal" text-decoration="none" transform="matrix(1 0 0 1 1498.42 1853)">Satellite</text><text fill="#FFFFFF" fill-opacity="1" font-family="Calibri,Calibri_MSFontService,sans-serif" font-style="normal" font-variant="normal" font-weight="400" font-stretch="normal" font-size="50" text-anchor="start" direction="ltr" writing-mode="lr-tb" unicode-bidi="normal" text-decoration="none" transform="matrix(1 0 0 1 1436.3 1483)">Point</text><text fill="#FFFFFF" fill-opacity="1" font-family="Calibri,Calibri_MSFontService,sans-serif" font-style="normal" font-variant="normal" font-weight="400" font-stretch="normal" font-size="50" text-anchor="start" direction="ltr" writing-mode="lr-tb" unicode-bidi="normal" text-decoration="none" transform="matrix(1 0 0 1 1542.86 1483)">-</text><text fill="#FFFFFF" fill-opacity="1" font-family="Calibri,Calibri_MSFontService,sans-serif" font-style="normal" font-variant="normal" font-weight="400" font-stretch="normal" font-size="50" text-anchor="start" direction="ltr" writing-mode="lr-tb" unicode-bidi="normal" text-decoration="none" transform="matrix(1 0 0 1 1558.33 1483)">to</text><text fill="#FFFFFF" fill-opacity="1" font-family="Calibri,Calibri_MSFontService,sans-serif" font-style="normal" font-variant="normal" font-weight="400" font-stretch="normal" font-size="50" text-anchor="start" direction="ltr" writing-mode="lr-tb" unicode-bidi="normal" text-decoration="none" transform="matrix(1 0 0 1 1601.3 1483)">-</text><text fill="#FFFFFF" fill-opacity="1" font-family="Calibri,Calibri_MSFontService,sans-serif" font-style="normal" font-variant="normal" font-weight="400" font-stretch="normal" font-size="50" text-anchor="start" direction="ltr" writing-mode="lr-tb" unicode-bidi="normal" text-decoration="none" transform="matrix(1 0 0 1 1616.77 1483)">Point</text><g><g><g><path d="M73.3125 62.475 79.6875 62.475 79.6875 127.882 73.3125 127.882Z" fill="#FFFFFF" fill-rule="nonzero" fill-opacity="0.4" transform="matrix(1 0 0 1.06536 1426 1524)"/><path d="M81.4087 48.1312C81.4087 50.7719 79.2681 52.9125 76.6275 52.9125 73.9869 52.9125 71.8462 50.7719 71.8462 48.1312 71.8462 45.4906 73.9869 43.35 76.6275 43.35 79.2681 43.35 81.4087 45.4906 81.4087 48.1312Z" fill="#FFFFFF" fill-rule="nonzero" fill-opacity="0.4" transform="matrix(1 0 0 1.06536 1426 1524)"/><path d="M87.8475 35.0625C87.9112 35.1262 87.975 35.19 88.0387 35.2537L88.1662 35.0625 87.8475 35.0625Z" fill="#FFFFFF" fill-rule="nonzero" fill-opacity="0.4" transform="matrix(1 0 0 1.06536 1426 1524)"/><path d="M89.9512 37.23C89.3775 36.5287 88.6762 35.8275 87.975 35.2537L83.7037 39.6525C86.2537 41.7562 87.72 44.88 87.72 48.1312 87.6562 51.51 86.1262 54.6975 83.4487 56.8012L87.7837 61.455C95.115 55.3987 96.0712 44.4975 89.9512 37.23Z" fill="#FFFFFF" fill-rule="nonzero" fill-opacity="0.4" transform="matrix(1 0 0 1.06536 1426 1524)"/><path d="M99.5137 28.6875C98.7487 27.795 97.92 26.9662 97.0275 26.1375L97.0275 25.9462 92.6287 30.4725C102.382 39.1425 103.211 54.06 94.605 63.75 93.84 64.5787 93.075 65.3437 92.1825 66.1087L96.5175 70.7625C108.949 59.9887 110.287 41.1187 99.5137 28.6875Z" fill="#FFFFFF" fill-rule="nonzero" fill-opacity="0.4" transform="matrix(1 0 0 1.06536 1426 1524)"/></g></g></g><g><g><g><path d="M72.475 73.9916 26.7042 67.925 27.4083 62.5625 63.05 67.275 57.4708 56.0083 103.296 62.5625 102.537 67.925 66.8958 62.8333Z" fill="#FFFFFF" fill-rule="nonzero" fill-opacity="0.4" transform="matrix(1 0 0 1.06923 1520 1505)"/></g></g></g><g><g><g><path d="M73.3125 62.475 79.6875 62.475 79.6875 127.882 73.3125 127.882Z" fill="#FFFFFF" fill-rule="nonzero" fill-opacity="0.4" transform="matrix(-1 0 0 1.0719 1741 1525)"/><path d="M81.4087 48.1312C81.4087 50.7719 79.2681 52.9125 76.6275 52.9125 73.9869 52.9125 71.8462 50.7719 71.8462 48.1312 71.8462 45.4906 73.9869 43.35 76.6275 43.35 79.2681 43.35 81.4087 45.4906 81.4087 48.1312Z" fill="#FFFFFF" fill-rule="nonzero" fill-opacity="0.4" transform="matrix(-1 0 0 1.0719 1741 1525)"/><path d="M87.8475 35.0625C87.9112 35.1262 87.975 35.19 88.0387 35.2537L88.1662 35.0625 87.8475 35.0625Z" fill="#FFFFFF" fill-rule="nonzero" fill-opacity="0.4" transform="matrix(-1 0 0 1.0719 1741 1525)"/><path d="M89.9512 37.23C89.3775 36.5287 88.6762 35.8275 87.975 35.2537L83.7037 39.6525C86.2537 41.7562 87.72 44.88 87.72 48.1312 87.6562 51.51 86.1262 54.6975 83.4487 56.8012L87.7837 61.455C95.115 55.3987 96.0712 44.4975 89.9512 37.23Z" fill="#FFFFFF" fill-rule="nonzero" fill-opacity="0.4" transform="matrix(-1 0 0 1.0719 1741 1525)"/><path d="M99.5137 28.6875C98.7487 27.795 97.92 26.9662 97.0275 26.1375L97.0275 25.9462 92.6287 30.4725C102.382 39.1425 103.211 54.06 94.605 63.75 93.84 64.5787 93.075 65.3437 92.1825 66.1087L96.5175 70.7625C108.949 59.9887 110.287 41.1187 99.5137 28.6875Z" fill="#FFFFFF" fill-rule="nonzero" fill-opacity="0.4" transform="matrix(-1 0 0 1.0719 1741 1525)"/></g></g></g><text fill="#000000" fill-opacity="1" font-family="Calibri,Calibri_MSFontService,sans-serif" font-style="normal" font-variant="normal" font-weight="400" font-stretch="normal" font-size="55" text-anchor="start" direction="ltr" writing-mode="lr-tb" unicode-bidi="normal" text-decoration="none" transform="matrix(1 0 0 1 2150.63 549)">Parameters</text><rect x="1873" y="646" width="797" height="1431" fill="#334C66" fill-opacity="1"/><path d="M1780.5 839.063 1851.7 839.063 1851.7 845.938 1780.5 845.938ZM1847.12 828.75 1874.62 842.5 1847.12 856.25Z" fill="#1787B3" fill-rule="nonzero" fill-opacity="1"/><path d="M1783.5 1206.06 1851.99 1206.06 1851.99 1212.94 1783.5 1212.94ZM1847.4 1195.75 1874.9 1209.5 1847.4 1223.25Z" fill="#1787B3" fill-rule="nonzero" fill-opacity="1"/><path d="M1780.5 1563.06 1851.7 1563.06 1851.7 1569.94 1780.5 1569.94ZM1847.12 1552.75 1874.62 1566.5 1847.12 1580.25Z" fill="#1787B3" fill-rule="nonzero" fill-opacity="1"/><path d="M2294.5 646.5 2294.5 2077.13" stroke="#E8E8E8" stroke-width="4.58333" stroke-linecap="butt" stroke-linejoin="miter" stroke-miterlimit="8" stroke-dasharray="18.3333 13.75" stroke-opacity="0.501961" fill="none" fill-rule="evenodd"/><path d="M1873.5 1018.5 2693.45 1018.5" stroke="#E8E8E8" stroke-width="4.58333" stroke-linecap="butt" stroke-linejoin="miter" stroke-miterlimit="8" stroke-opacity="0.501961" fill="none" fill-rule="evenodd"/><path d="M1873.5 1384.5 2693.45 1384.5" stroke="#E8E8E8" stroke-width="4.58333" stroke-linecap="butt" stroke-linejoin="miter" stroke-miterlimit="8" stroke-opacity="0.501961" fill="none" fill-rule="evenodd"/><path d="M1873.5 1735.5 2689.87 1735.5" stroke="#E8E8E8" stroke-width="4.58333" stroke-linecap="butt" stroke-linejoin="miter" stroke-miterlimit="8" stroke-opacity="0.501961" fill="none" fill-rule="evenodd"/><rect x="1872" y="1735" width="422" height="380" fill="#E8E8E8" fill-opacity="1"/><text fill="#FFFFFF" fill-opacity="1" font-family="Calibri,Calibri_MSFontService,sans-serif" font-style="normal" font-variant="normal" font-weight="400" font-stretch="normal" font-size="50" text-anchor="start" direction="ltr" writing-mode="lr-tb" unicode-bidi="normal" text-decoration="none" transform="matrix(1 0 0 1 2434.9 1838)">Cost</text><g><g><g><path d="M37.5 15.0004 37.5 35.6254 30 35.6254 30 26.4584C20.7888 34.7023 15 46.6755 15 60.0004 15 84.8535 35.1472 105 60 105 62.3582 105 64.6717 104.819 66.9277 104.471L68.0722 111.883C65.4388 112.29 62.7427 112.5 60 112.5 31.0051 112.5 7.5 88.995 7.5 60.0004 7.5 45.3079 13.5378 32.026 23.258 22.5004L15 22.5004 15 15.0004 37.5 15.0004ZM60 7.50037C88.995 7.50037 112.5 31.0054 112.5 60.0004 112.5 74.6925 106.462 87.975 96.7417 97.5L105 97.5 105 105 82.5 105 82.5 84.375 90 84.375 90 93.5422C99.2115 85.2982 105 73.3255 105 60.0004 105 35.1475 84.8527 15.0004 60 15.0004 57.6418 15.0004 55.3283 15.1814 53.0722 15.5298L51.9277 8.11762C54.5612 7.71097 57.2572 7.50037 60 7.50037ZM63.75 26.25 63.75 37.5 78.75 37.5 78.75 45 50.625 45C47.5184 45 45 47.5184 45 50.625 45 53.7316 47.5184 56.25 50.625 56.25L69.375 56.25C76.6237 56.25 82.5 62.1262 82.5 69.375 82.5 76.6237 76.6237 82.5 69.375 82.5L63.75 82.5 63.75 93.75 56.25 93.75 56.25 82.5 41.25 82.5 41.25 75 69.375 75C72.4816 75 75 72.4816 75 69.375 75 66.2684 72.4816 63.75 69.375 63.75L50.625 63.75C43.3762 63.75 37.5 57.8737 37.5 50.625 37.5 43.3762 43.3762 37.5 50.625 37.5L56.25 37.5 56.25 26.25 63.75 26.25Z" fill="#FFFFFF" fill-rule="evenodd" fill-opacity="0.4" transform="matrix(1 0 0 1.07737 2424 1875.86)"/></g></g></g><text fill="#FFFFFF" fill-opacity="1" font-family="Calibri,Calibri_MSFontService,sans-serif" font-style="normal" font-variant="normal" font-weight="400" font-stretch="normal" font-size="50" text-anchor="start" direction="ltr" writing-mode="lr-tb" unicode-bidi="normal" text-decoration="none" transform="matrix(1 0 0 1 2436.85 1486)">Cost</text><g><g><g><path d="M37.8125 15.1254 37.8125 35.9223 30.25 35.9223 30.25 26.6789C20.962 34.9915 15.125 47.0645 15.125 60.5004 15.125 85.5606 35.4401 105.875 60.5 105.875 62.8779 105.875 65.2106 105.693 67.4855 105.342L68.6395 112.815C65.9841 113.226 63.2656 113.438 60.5 113.438 31.2634 113.438 7.5625 89.7366 7.5625 60.5004 7.5625 45.6854 13.6506 32.2929 23.4518 22.6879L15.125 22.6879 15.125 15.1254 37.8125 15.1254ZM60.5 7.56288C89.7366 7.56288 113.438 31.2638 113.438 60.5004 113.438 75.3149 107.349 88.7081 97.5479 98.3125L105.875 98.3125 105.875 105.875 83.1875 105.875 83.1875 85.0781 90.75 85.0781 90.75 94.3218C100.038 86.0091 105.875 73.9365 105.875 60.5004 105.875 35.4404 85.5599 15.1254 60.5 15.1254 58.1221 15.1254 55.7894 15.3079 53.5145 15.6592L52.3605 8.18527C55.0159 7.77523 57.7344 7.56288 60.5 7.56288ZM64.2812 26.4688 64.2812 37.8125 79.4062 37.8125 79.4062 45.375 51.0469 45.375C47.9144 45.375 45.375 47.9144 45.375 51.0469 45.375 54.1793 47.9144 56.7188 51.0469 56.7188L69.9531 56.7188C77.2623 56.7188 83.1875 62.644 83.1875 69.9531 83.1875 77.2623 77.2623 83.1875 69.9531 83.1875L64.2812 83.1875 64.2812 94.5312 56.7188 94.5312 56.7188 83.1875 41.5938 83.1875 41.5938 75.625 69.9531 75.625C73.0856 75.625 75.625 73.0857 75.625 69.9531 75.625 66.8207 73.0856 64.2812 69.9531 64.2812L51.0469 64.2812C43.7377 64.2812 37.8125 58.356 37.8125 51.0469 37.8125 43.7377 43.7377 37.8125 51.0469 37.8125L56.7188 37.8125 56.7188 26.4688 64.2812 26.4688Z" fill="#FFFFFF" fill-rule="evenodd" fill-opacity="0.4" transform="matrix(1 0 0 1.06847 2427 1532.86)"/></g></g></g><text fill="#FFFFFF" fill-opacity="1" font-family="Calibri,Calibri_MSFontService,sans-serif" font-style="normal" font-variant="normal" font-weight="400" font-stretch="normal" font-size="50" text-anchor="start" direction="ltr" writing-mode="lr-tb" unicode-bidi="normal" text-decoration="none" transform="matrix(1 0 0 1 2436.47 1117)">Cost</text><g><g><g><path d="M37.8125 15.1254 37.8125 35.9223 30.25 35.9223 30.25 26.6789C20.962 34.9915 15.125 47.0645 15.125 60.5004 15.125 85.5606 35.4401 105.875 60.5 105.875 62.8779 105.875 65.2106 105.693 67.4855 105.342L68.6395 112.815C65.9841 113.226 63.2656 113.438 60.5 113.438 31.2634 113.438 7.5625 89.7366 7.5625 60.5004 7.5625 45.6854 13.6506 32.2929 23.4518 22.6879L15.125 22.6879 15.125 15.1254 37.8125 15.1254ZM60.5 7.56288C89.7366 7.56288 113.438 31.2638 113.438 60.5004 113.438 75.3149 107.349 88.7081 97.5479 98.3125L105.875 98.3125 105.875 105.875 83.1875 105.875 83.1875 85.0781 90.75 85.0781 90.75 94.3218C100.038 86.0091 105.875 73.9365 105.875 60.5004 105.875 35.4404 85.5599 15.1254 60.5 15.1254 58.1221 15.1254 55.7894 15.3079 53.5145 15.6592L52.3605 8.18527C55.0159 7.77523 57.7344 7.56288 60.5 7.56288ZM64.2812 26.4688 64.2812 37.8125 79.4062 37.8125 79.4062 45.375 51.0469 45.375C47.9144 45.375 45.375 47.9144 45.375 51.0469 45.375 54.1793 47.9144 56.7188 51.0469 56.7188L69.9531 56.7188C77.2623 56.7188 83.1875 62.644 83.1875 69.9531 83.1875 77.2623 77.2623 83.1875 69.9531 83.1875L64.2812 83.1875 64.2812 94.5312 56.7188 94.5312 56.7188 83.1875 41.5938 83.1875 41.5938 75.625 69.9531 75.625C73.0856 75.625 75.625 73.0857 75.625 69.9531 75.625 66.8207 73.0856 64.2812 69.9531 64.2812L51.0469 64.2812C43.7377 64.2812 37.8125 58.356 37.8125 51.0469 37.8125 43.7377 43.7377 37.8125 51.0469 37.8125L56.7188 37.8125 56.7188 26.4688 64.2812 26.4688Z" fill="#FFFFFF" fill-rule="evenodd" fill-opacity="0.4" transform="matrix(1 0 0 1.06018 2426 1176.86)"/></g></g></g><text fill="#FFFFFF" fill-opacity="1" font-family="Calibri,Calibri_MSFontService,sans-serif" font-style="normal" font-variant="normal" font-weight="400" font-stretch="normal" font-size="50" text-anchor="start" direction="ltr" writing-mode="lr-tb" unicode-bidi="normal" text-decoration="none" transform="matrix(1 0 0 1 2435.57 754)">Cost</text><g><g><g><path d="M37.5 15.0004 37.5 35.6254 30 35.6254 30 26.4584C20.7888 34.7023 15 46.6755 15 60.0004 15 84.8535 35.1472 105 60 105 62.3582 105 64.6717 104.819 66.9277 104.471L68.0722 111.883C65.4388 112.29 62.7427 112.5 60 112.5 31.0051 112.5 7.5 88.995 7.5 60.0004 7.5 45.3079 13.5378 32.026 23.258 22.5004L15 22.5004 15 15.0004 37.5 15.0004ZM60 7.50037C88.995 7.50037 112.5 31.0054 112.5 60.0004 112.5 74.6925 106.462 87.975 96.7417 97.5L105 97.5 105 105 82.5 105 82.5 84.375 90 84.375 90 93.5422C99.2115 85.2982 105 73.3255 105 60.0004 105 35.1475 84.8527 15.0004 60 15.0004 57.6418 15.0004 55.3283 15.1814 53.0722 15.5298L51.9277 8.11762C54.5612 7.71097 57.2572 7.50037 60 7.50037ZM63.75 26.25 63.75 37.5 78.75 37.5 78.75 45 50.625 45C47.5184 45 45 47.5184 45 50.625 45 53.7316 47.5184 56.25 50.625 56.25L69.375 56.25C76.6237 56.25 82.5 62.1262 82.5 69.375 82.5 76.6237 76.6237 82.5 69.375 82.5L63.75 82.5 63.75 93.75 56.25 93.75 56.25 82.5 41.25 82.5 41.25 75 69.375 75C72.4816 75 75 72.4816 75 69.375 75 66.2684 72.4816 63.75 69.375 63.75L50.625 63.75C43.3762 63.75 37.5 57.8737 37.5 50.625 37.5 43.3762 43.3762 37.5 50.625 37.5L56.25 37.5 56.25 26.25 63.75 26.25Z" fill="#FFFFFF" fill-rule="evenodd" fill-opacity="0.4" transform="matrix(1 0 0 1.07737 2425 815.858)"/></g></g></g><text fill="#FFFFFF" fill-opacity="1" font-family="Calibri,Calibri_MSFontService,sans-serif" font-style="normal" font-variant="normal" font-weight="400" font-stretch="normal" font-size="50" text-anchor="start" direction="ltr" writing-mode="lr-tb" unicode-bidi="normal" text-decoration="none" transform="matrix(1 0 0 1 1944.52 1484)">Search radius</text><text fill="#FFFFFF" fill-opacity="1" font-family="Calibri,Calibri_MSFontService,sans-serif" font-style="normal" font-variant="normal" font-weight="400" font-stretch="normal" font-size="50" text-anchor="start" direction="ltr" writing-mode="lr-tb" unicode-bidi="normal" text-decoration="none" transform="matrix(1 0 0 1 1987.93 1120)">Coverage</text><text fill="#FFFFFF" fill-opacity="1" font-family="Calibri,Calibri_MSFontService,sans-serif" font-style="normal" font-variant="normal" font-weight="400" font-stretch="normal" font-size="50" text-anchor="start" direction="ltr" writing-mode="lr-tb" unicode-bidi="normal" text-decoration="none" transform="matrix(1 0 0 1 1914.81 736)">Max. connection </text><text fill="#FFFFFF" fill-opacity="1" font-family="Calibri,Calibri_MSFontService,sans-serif" font-style="normal" font-variant="normal" font-weight="400" font-stretch="normal" font-size="50" text-anchor="start" direction="ltr" writing-mode="lr-tb" unicode-bidi="normal" text-decoration="none" transform="matrix(1 0 0 1 2020.23 797)">length</text><g><g><g><path d="M80.1986 85.4135C72.4894 91.9396 62.5167 95.8749 51.625 95.8749 27.1864 95.8749 7.37499 76.0635 7.37499 51.625 7.37499 27.1864 27.1864 7.37499 51.625 7.37499 76.0635 7.37499 95.8749 27.1864 95.8749 51.625 95.8749 62.5167 91.9396 72.4894 85.4135 80.1986L110.625 105.41 105.41 110.625 80.1986 85.4135ZM88.4999 51.625C88.4999 71.9904 71.9904 88.4999 51.625 88.4999 31.2595 88.4999 14.75 71.9904 14.75 51.625 14.75 31.2595 31.2595 14.75 51.625 14.75 71.9904 14.75 88.4999 31.2595 88.4999 51.625Z" fill="#FFFFFF" fill-rule="evenodd" fill-opacity="0.4" transform="matrix(1 0 0 1.0678 2027 1534)"/></g></g></g><g><g><g><path d="M105.917 27.3333 58.0833 27.3333C52.4117 27.3333 47.8333 31.9117 47.8333 37.5833L47.8333 126.417C47.8333 132.088 52.4117 136.667 58.0833 136.667L105.917 136.667C111.588 136.667 116.167 132.088 116.167 126.417L116.167 37.5833C116.167 31.9117 111.588 27.3333 105.917 27.3333ZM109.333 126.417C109.333 128.33 107.83 129.833 105.917 129.833L58.0833 129.833C56.17 129.833 54.6667 128.33 54.6667 126.417L54.6667 37.5833C54.6667 35.67 56.17 34.1667 58.0833 34.1667L105.917 34.1667C107.83 34.1667 109.333 35.67 109.333 37.5833L109.333 126.417Z" fill="#FFFFFF" fill-rule="nonzero" fill-opacity="0.4" transform="matrix(1 0 0 1.06098 2006 1153)"/><path d="M87.125 116.167C87.125 118.997 84.8304 121.292 82 121.292 79.1695 121.292 76.875 118.997 76.875 116.167 76.875 113.336 79.1695 111.042 82 111.042 84.8304 111.042 87.125 113.336 87.125 116.167Z" fill="#FFFFFF" fill-rule="nonzero" fill-opacity="0.4" transform="matrix(1 0 0 1.06098 2006 1153)"/><path d="M92.25 68.3333 99.0833 68.3333 99.0833 95.6666 92.25 95.6666Z" fill="#FFFFFF" fill-rule="nonzero" fill-opacity="0.4" transform="matrix(1 0 0 1.06098 2006 1153)"/><path d="M78.5833 75.235 85.4166 75.235 85.4166 95.735 78.5833 95.735Z" fill="#FFFFFF" fill-rule="nonzero" fill-opacity="0.4" transform="matrix(1 0 0 1.06098 2006 1153)"/><path d="M64.9167 81.9316 71.75 81.9316 71.75 95.8033 64.9167 95.8033Z" fill="#FFFFFF" fill-rule="nonzero" fill-opacity="0.4" transform="matrix(1 0 0 1.06098 2006 1153)"/></g></g></g><path d="M2249.5 839.063 2320.7 839.063 2320.7 845.938 2249.5 845.938ZM2316.12 828.75 2343.62 842.5 2316.12 856.25Z" fill="#FFFFFF" fill-rule="nonzero" fill-opacity="1"/><path d="M2252.5 1206.06 2320.99 1206.06 2320.99 1212.94 2252.5 1212.94ZM2316.4 1195.75 2343.9 1209.5 2316.4 1223.25Z" fill="#FFFFFF" fill-rule="nonzero" fill-opacity="1"/><path d="M2249.5 1563.06 2320.7 1563.06 2320.7 1569.94 2249.5 1569.94ZM2316.12 1552.75 2343.62 1566.5 2316.12 1580.25Z" fill="#FFFFFF" fill-rule="nonzero" fill-opacity="1"/><path d="M2296.5 1906.06 2320.64 1906.06 2320.64 1912.94 2296.5 1912.94ZM2316.06 1895.75 2343.56 1909.5 2316.06 1923.25Z" fill="#FFFFFF" fill-rule="nonzero" fill-opacity="1"/><g><g><g><path d="M109.469 35.3125 77.6876 3.53125 3.53125 77.6876 35.3125 109.469 109.469 35.3125ZM35.3125 99.481 13.5191 77.6876 21.9188 69.2878 27.5187 74.888 32.5126 69.8937 26.9128 64.294 32.5126 58.6941 43.4093 69.5908 48.4032 64.5969 37.5066 53.7002 43.1064 48.1003 48.7062 53.7002 53.7001 48.7062 48.1003 43.1064 53.7001 37.5066 64.5969 48.4033 69.5908 43.4093 58.6941 32.5127 64.2939 26.9128 69.8937 32.5127 74.888 27.5187 69.2878 21.9189 77.6876 13.5191 99.481 35.3125 35.3125 99.481Z" fill="#FFFFFF" fill-rule="evenodd" fill-opacity="0.4" transform="matrix(1 0 0 1.0708 2026 826)"/></g></g></g><rect x="2859" y="440" width="1474" height="1712" fill="#E8E8E8" fill-opacity="1"/><rect x="2916" y="676" width="413" height="342" fill="#1787B3" fill-opacity="1"/><rect x="2914" y="1389" width="413" height="350" fill="#1787B3" fill-opacity="1"/><text fill="#FFFFFF" fill-opacity="1" font-family="Calibri,Calibri_MSFontService,sans-serif" font-style="normal" font-variant="normal" font-weight="400" font-stretch="normal" font-size="50" text-anchor="start" direction="ltr" writing-mode="lr-tb" unicode-bidi="normal" text-decoration="none" transform="matrix(1 0 0 1 2977.96 772)">Road network</text><text fill="#FFFFFF" fill-opacity="1" font-family="Calibri,Calibri_MSFontService,sans-serif" font-style="normal" font-variant="normal" font-weight="400" font-stretch="normal" font-size="50" text-anchor="start" direction="ltr" writing-mode="lr-tb" unicode-bidi="normal" text-decoration="none" transform="matrix(1 0 0 1 3053.27 1469)">Digital </text><text fill="#FFFFFF" fill-opacity="1" font-family="Calibri,Calibri_MSFontService,sans-serif" font-style="normal" font-variant="normal" font-weight="400" font-stretch="normal" font-size="50" text-anchor="start" direction="ltr" writing-mode="lr-tb" unicode-bidi="normal" text-decoration="none" transform="matrix(1 0 0 1 3023.18 1530)">elevation</text><text fill="#000000" fill-opacity="1" font-family="Calibri,Calibri_MSFontService,sans-serif" font-style="normal" font-variant="normal" font-weight="400" font-stretch="normal" font-size="55" text-anchor="start" direction="ltr" writing-mode="lr-tb" unicode-bidi="normal" text-decoration="none" transform="matrix(1 0 0 1 3685.22 599)">User provided</text><rect x="3448" y="650" width="823" height="1431" fill="#1787B3" fill-opacity="1"/><path d="M3329.5 844.062 3434.39 844.063 3434.39 850.938 3329.5 850.937ZM3429.81 833.75 3457.31 847.5 3429.81 861.25Z" fill="#1787B3" fill-rule="nonzero" fill-opacity="1"/><path d="M3327.56 1561.06 3425.72 1562.76 3425.6 1569.63 3327.44 1567.94ZM3421.31 1552.37 3448.57 1566.59 3420.84 1579.87Z" fill="#1787B3" fill-rule="nonzero" fill-opacity="1"/><rect x="3439" y="1739" width="407" height="383" fill="#E8E8E8" fill-opacity="1"/><text fill="#FFFFFF" fill-opacity="1" font-family="Calibri,Calibri_MSFontService,sans-serif" font-style="normal" font-variant="normal" font-weight="400" font-stretch="normal" font-size="50" text-anchor="start" direction="ltr" writing-mode="lr-tb" unicode-bidi="normal" text-decoration="none" transform="matrix(1 0 0 1 3564.94 1511)">Cell sites</text><text fill="#FFFFFF" fill-opacity="1" font-family="Calibri,Calibri_MSFontService,sans-serif" font-style="normal" font-variant="normal" font-weight="400" font-stretch="normal" font-size="50" text-anchor="start" direction="ltr" writing-mode="lr-tb" unicode-bidi="normal" text-decoration="none" transform="matrix(1 0 0 1 3480.72 1120)">Mobile coverage</text><text fill="#FFFFFF" fill-opacity="1" font-family="Calibri,Calibri_MSFontService,sans-serif" font-style="normal" font-variant="normal" font-weight="400" font-stretch="normal" font-size="50" text-anchor="start" direction="ltr" writing-mode="lr-tb" unicode-bidi="normal" text-decoration="none" transform="matrix(1 0 0 1 3527.43 765)">TRX network</text><path d="M1230 1348 1277 1348 1277 1329 1315 1367 1277 1405 1277 1386 1230 1386Z" fill="#66AEC4" fill-rule="evenodd" fill-opacity="1"/><text fill="#000000" fill-opacity="1" font-family="Calibri,Calibri_MSFontService,sans-serif" font-style="normal" font-variant="normal" font-weight="400" font-stretch="normal" font-size="55" text-anchor="start" direction="ltr" writing-mode="lr-tb" unicode-bidi="normal" text-decoration="none" transform="matrix(1 0 0 1 2916.08 604)">System provided</text><g><g><g><path d="M123.375 114.563 105.75 114.563 105.75 105.75 35.2501 105.75 35.2501 114.563 17.625 114.563 17.625 66.0939 19.5814 61.6876 8.81252 61.6876 8.81252 52.8751 23.503 52.8751 35.2501 26.4376 105.75 26.4376 117.497 52.8751 132.188 52.8751 132.188 61.6876 121.419 61.6876 123.375 66.0939 123.375 114.563ZM114.563 66.0939 26.4376 66.0939 26.4376 96.9377 114.563 96.9377 114.563 66.0939ZM41.8595 74.9064C45.5097 74.9064 48.4688 77.8656 48.4688 81.5158 48.4688 85.166 45.5097 88.1252 41.8595 88.1252 38.2092 88.1252 35.2501 85.166 35.2501 81.5158 35.2501 77.8656 38.2092 74.9064 41.8595 74.9064ZM99.1408 74.9064C102.791 74.9064 105.75 77.8656 105.75 81.5158 105.75 85.166 102.791 88.1252 99.1408 88.1252 95.4907 88.1252 92.5314 85.166 92.5314 81.5158 92.5314 77.8656 95.4907 74.9064 99.1408 74.9064ZM100.022 35.2501 40.9694 35.2501 31.1787 57.2814 109.813 57.2814 100.022 35.2501Z" fill="#FFFFFF" fill-rule="evenodd" fill-opacity="0.4" transform="matrix(1.00709 0 0 1 3054 820)"/></g></g></g><g><g><g><path d="M107.111 86.8454 107.111 95.5142C102.801 98.9275 98.8918 102.819 95.4571 107.111L86.4027 107.111C91.9796 99.1239 99.0025 92.2474 107.111 86.8454ZM65.1805 37.5245 65.9945 37.8815 66.8228 38.2385 70.3004 39.6667 74.1992 41.2019 84.9103 45.2722 88.2379 46.6146C90.8228 47.6929 92.9793 48.6783 95.0073 49.7351 108.489 56.7544 105.433 72.3355 90.1944 85.1245 74.2635 98.5419 48.4855 107.111 18.8301 107.111 14.9027 107.139 10.9824 106.743 7.14072 105.933L7.14072 98.5419C10.9539 99.5523 14.8884 100.031 18.8301 99.9701 46.8717 99.9701 71.0216 91.9367 85.5886 79.7118 97.5351 69.7148 99.4059 60.1391 91.694 56.1475L90.5657 55.5762 89.3875 55.005 86.824 53.8482 83.8892 52.6271 81.6755 51.7559 80.483 51.2918 69.5577 47.1359 65.7589 45.6006C64.5592 45.1008 63.4024 44.6081 62.2671 44.1011 45.6078 37.7387 32.0154 25.2389 24.2784 9.16868L23.3644 7.14072 31.2192 7.14072C38.3635 21.1437 50.4706 31.9761 65.1805 37.5245ZM27.9916 35.2609C39.4061 42.9193 51.2454 49.9279 63.4453 56.2617 72.5426 60.9674 71.2501 70.586 62.2956 77.7838 50.924 85.6458 37.2388 89.4553 23.443 88.5949 13.4888 88.3949 8.08329 79.976 7.14072 68.3652L7.14072 60.389C7.21213 59.4072 7.3121 58.4146 7.44063 57.4114 8.06544 51.0383 10.1148 44.883 13.4388 39.4096 14.0422 38.1064 14.9205 36.9496 16.0131 36.0178 17.1056 35.0859 18.3838 34.3968 19.7655 34.0041 21.1472 33.6114 22.5968 33.5185 24.0142 33.7363 25.4317 33.9541 26.7884 34.4718 27.9916 35.2609ZM19.3299 43.4298C16.6557 47.9749 15.0134 53.0484 14.5171 58.2968 12.8533 71.6285 16.4951 81.3185 23.5644 81.4542 35.7 82.2682 47.7571 79.0156 57.8398 72.2141 63.3096 67.8225 63.7595 64.4593 60.182 62.6027 49.121 56.8722 38.3564 50.5848 27.9345 43.7655L24.0357 41.2019 23.5644 40.9449C22.2433 40.3094 21.008 40.9592 19.3299 43.4298ZM26.6492 52.2915 27.6203 52.3557C34.4004 54.0695 40.4343 57.9469 44.8151 63.3953 48.107 68.4581 43.4513 72.1998 36.9604 73.885 34.6503 74.8276 32.1189 75.1061 29.659 74.6919 27.199 74.2777 24.9033 73.1816 23.0288 71.5286 19.0443 66.4729 20.4796 52.3058 26.6492 52.2915ZM28.3344 59.8392 28.1559 60.8104 28.0487 61.6601C27.7345 63.4953 27.9416 65.3804 28.6486 67.1013 30.7836 67.7511 33.0687 67.7083 35.1752 66.9728 35.7607 66.8193 36.3355 66.63 36.8961 66.4087L37.6102 66.0945 37.7601 66.0088 37.1317 65.4375C34.9217 63.5095 32.4831 61.86 29.8768 60.5176L28.7414 59.982 28.3344 59.8392ZM105.911 33.5614 107.111 33.8756 107.111 41.2662 104.083 40.4664C102.18 39.9523 100.341 39.4346 98.5705 38.9098L93.3506 37.3245C69.6577 29.8482 55.4191 21.2008 49.0782 7.69769L48.8139 7.14072 56.8615 7.14072C63.8309 18.6016 79.7047 26.3707 105.911 33.5614ZM107.111 15.4668 107.111 22.6075C95.0501 21.9291 81.4042 16.4022 77.3268 7.14072L85.8314 7.14072C91.8118 12.1856 99.2953 15.1133 107.111 15.4668Z" fill="#FFFFFF" fill-rule="nonzero" fill-opacity="0.4" transform="matrix(1.00655 0 0 1 3063 1573.87)"/></g></g></g><path d="M2767 1348 2814 1348 2814 1329 2852 1367 2814 1405 2814 1386 2767 1386Z" fill="#66AEC4" fill-rule="evenodd" fill-opacity="1"/><path d="M3845.5 649.5 3845.5 2080.12" stroke="#E8E8E8" stroke-width="4.58333" stroke-linecap="butt" stroke-linejoin="miter" stroke-miterlimit="8" stroke-opacity="0.501961" fill="none" fill-rule="evenodd"/><path d="M3450.5 1021.5 3845.43 1021.5" stroke="#E8E8E8" stroke-width="4.58333" stroke-linecap="butt" stroke-linejoin="miter" stroke-miterlimit="8" stroke-opacity="0.501961" fill="none" fill-rule="evenodd"/><path d="M3450.5 1388.5 3845.43 1388.5" stroke="#E8E8E8" stroke-width="4.58333" stroke-linecap="butt" stroke-linejoin="miter" stroke-miterlimit="8" stroke-opacity="0.501961" fill="none" fill-rule="evenodd"/><path d="M2670.5 1907.5 3846.74 1907.5" stroke="#1787B3" stroke-width="6.875" stroke-linecap="butt" stroke-linejoin="miter" stroke-miterlimit="8" stroke-opacity="1" fill="none" fill-rule="evenodd"/><path d="M3846.5 1906.06 3873.1 1906.06 3873.1 1912.94 3846.5 1912.94ZM3868.52 1895.75 3896.02 1909.5 3868.52 1923.25Z" fill="#FFFFFF" fill-rule="nonzero" fill-opacity="1"/><path d="M3385.5 440.5 3385.5 2152.67" stroke="#000000" stroke-width="4.58333" stroke-linecap="butt" stroke-linejoin="miter" stroke-miterlimit="8" stroke-dasharray="18.3333 13.75" stroke-opacity="0.2" fill="none" fill-rule="evenodd"/><path d="M2670.5 1563.06 2893.33 1563.06 2893.33 1569.94 2670.5 1569.94ZM2888.74 1552.75 2916.24 1566.5 2888.74 1580.25Z" fill="#1787B3" fill-rule="nonzero" fill-opacity="1"/><path d="M2673.5 844.062 2893.97 844.063 2893.97 850.938 2673.5 850.937ZM2889.39 833.75 2916.89 847.5 2889.39 861.25Z" fill="#1787B3" fill-rule="nonzero" fill-opacity="1"/><path d="M2665.5 1210.06 3422.41 1210.06 3422.41 1216.94 2665.5 1216.94ZM3417.82 1199.75 3445.32 1213.5 3417.82 1227.25Z" fill="#1787B3" fill-rule="nonzero" fill-opacity="1"/><path d="M3802.5 1564.06 3873.7 1564.06 3873.7 1570.94 3802.5 1570.94ZM3869.12 1553.75 3896.62 1567.5 3869.12 1581.25Z" fill="#FFFFFF" fill-rule="nonzero" fill-opacity="1"/><path d="M3798.5 1210.06 3869.7 1210.06 3869.7 1216.94 3798.5 1216.94ZM3865.12 1199.75 3892.62 1213.5 3865.12 1227.25Z" fill="#FFFFFF" fill-rule="nonzero" fill-opacity="1"/><path d="M3795.5 842.063 3866.7 842.063 3866.7 848.938 3795.5 848.938ZM3862.12 831.75 3889.62 845.5 3862.12 859.25Z" fill="#FFFFFF" fill-rule="nonzero" fill-opacity="1"/><g><g><g><path d="M3613.26 1242.81 3619.58 1249.13C3609.88 1258.84 3603.88 1272.24 3603.88 1287.05 3603.88 1301.86 3609.88 1315.27 3619.58 1324.97L3613.26 1331.29C3601.94 1319.97 3594.94 1304.33 3594.94 1287.05 3594.94 1269.77 3601.94 1254.13 3613.26 1242.81ZM3701.74 1242.81C3713.06 1254.13 3720.06 1269.77 3720.06 1287.05 3720.06 1304.33 3713.06 1319.97 3701.74 1331.29L3695.42 1324.97C3705.12 1315.27 3711.12 1301.86 3711.12 1287.05 3711.12 1272.24 3705.12 1258.84 3695.42 1249.13L3701.74 1242.81ZM3682.78 1261.77C3689.25 1268.24 3693.25 1277.18 3693.25 1287.05 3693.25 1296.92 3689.25 1305.86 3682.78 1312.33L3676.46 1306.01C3681.31 1301.16 3684.31 1294.45 3684.31 1287.05 3684.31 1279.65 3681.31 1272.94 3676.46 1268.09L3682.78 1261.77ZM3632.22 1261.77 3638.54 1268.09C3633.69 1272.94 3630.69 1279.65 3630.69 1287.05 3630.69 1294.45 3633.69 1301.16 3638.54 1306.01L3632.22 1312.33C3625.75 1305.86 3621.75 1296.92 3621.75 1287.05 3621.75 1277.18 3625.75 1268.24 3632.22 1261.77ZM3657.5 1278.11C3662.44 1278.11 3666.44 1282.11 3666.44 1287.05 3666.44 1291.99 3662.44 1295.99 3657.5 1295.99 3652.56 1295.99 3648.56 1291.99 3648.56 1287.05 3648.56 1282.11 3652.56 1278.11 3657.5 1278.11Z" fill="#FFFFFF" fill-rule="evenodd" fill-opacity="0.4"/></g></g></g><text fill="#FFFFFF" fill-opacity="1" font-family="Calibri,Calibri_MSFontService,sans-serif" font-style="normal" font-variant="normal" font-weight="400" font-stretch="normal" font-size="50" text-anchor="start" direction="ltr" writing-mode="lr-tb" unicode-bidi="normal" text-decoration="none" transform="matrix(1 0 0 1 3970.3 1237)">Points of </text><text fill="#FFFFFF" fill-opacity="1" font-family="Calibri,Calibri_MSFontService,sans-serif" font-style="normal" font-variant="normal" font-weight="400" font-stretch="normal" font-size="50" text-anchor="start" direction="ltr" writing-mode="lr-tb" unicode-bidi="normal" text-decoration="none" transform="matrix(1 0 0 1 3913.31 1298)">Interest (POIs)</text><g><g><g><path d="M116 101.597C108.073 101.597 101.597 108.073 101.597 116 101.597 123.927 108.073 130.403 116 130.403 123.927 130.403 130.403 123.927 130.403 116 130.403 107.977 123.927 101.597 116 101.597ZM116 120.737C113.39 120.737 111.263 118.61 111.263 116 111.263 113.39 113.39 111.263 116 111.263 118.61 111.263 120.737 113.39 120.737 116 120.737 118.61 118.61 120.737 116 120.737Z" fill="#FFFFFF" fill-rule="nonzero" fill-opacity="0.4" transform="matrix(1.00431 0 0 1 3934 1324)"/><path d="M58 174 87 174 87 145 58 145 58 174ZM67.6667 154.667 77.3333 154.667 77.3333 164.333 67.6667 164.333 67.6667 154.667Z" fill="#FFFFFF" fill-rule="nonzero" fill-opacity="0.4" transform="matrix(1.00431 0 0 1 3934 1324)"/><path d="M145 174 174 174 174 145 145 145 145 174ZM154.667 154.667 164.333 154.667 164.333 164.333 154.667 164.333 154.667 154.667Z" fill="#FFFFFF" fill-rule="nonzero" fill-opacity="0.4" transform="matrix(1.00431 0 0 1 3934 1324)"/><path d="M164.333 116 164.333 96.6667 120.737 79.2667 120.737 72.1133C124.893 70.3733 130.307 71.4367 135.623 72.5967 138.91 73.2733 142.1 73.95 145 73.95L149.833 73.95 149.833 44.95 145 44.95C143.163 44.95 140.553 44.37 137.75 43.79 132.627 42.7267 126.537 41.47 120.737 42.63L120.737 38.6667 111.07 38.6667 111.07 79.2667 67.6667 96.6667 67.6667 116 38.6667 116 38.6667 193.333 96.6667 193.333 106.333 193.333 125.57 193.333 135.237 193.333 193.333 193.333 193.333 116 164.333 116ZM135.72 53.2633C137.267 53.5533 138.717 53.94 140.167 54.1333L140.167 63.6067C139.393 63.4133 138.523 63.22 137.75 63.1233 132.627 61.9633 126.633 60.8033 120.833 61.8667L120.833 52.8767C124.893 51.1367 130.403 52.1033 135.72 53.2633ZM125.57 183.667 106.333 183.667 106.333 154.667 125.57 154.667 125.57 183.667ZM183.667 183.667 135.237 183.667 135.237 145 96.6667 145 96.6667 183.667 48.3333 183.667 48.3333 125.667 77.3333 125.667 77.3333 103.143 116 87.6767 154.667 103.143 154.667 125.667 183.667 125.667 183.667 183.667Z" fill="#FFFFFF" fill-rule="nonzero" fill-opacity="0.4" transform="matrix(1.00431 0 0 1 3934 1324)"/></g></g></g><g><g><g><path d="M30.625 48.125C33.8704 48.125 36.9094 47.2416 39.5148 45.702L51.7492 57.9364C49.4588 61.3946 48.125 65.5415 48.125 70 48.125 74.4584 49.4588 78.6054 51.7492 82.0636L39.5149 94.2978C36.9095 92.7587 33.8704 91.8749 30.625 91.8749 20.96 91.8749 13.125 99.7097 13.125 109.375 13.125 119.04 20.96 126.875 30.625 126.875 40.29 126.875 48.125 119.04 48.125 109.375 48.125 106.13 47.2416 103.091 45.702 100.485L57.9364 88.2507C61.3945 90.5414 65.5415 91.8749 70 91.8749 74.4584 91.8749 78.6053 90.5414 82.0635 88.2507L94.2978 100.485C92.7587 103.091 91.8749 106.13 91.8749 109.375 91.8749 119.04 99.7097 126.875 109.375 126.875 119.04 126.875 126.875 119.04 126.875 109.375 126.875 99.7097 119.04 91.8749 109.375 91.8749 106.13 91.8749 103.091 92.7587 100.485 94.2978L88.2507 82.0636C90.5414 78.6054 91.8749 74.4584 91.8749 70 91.8749 65.5415 90.5414 61.3945 88.2507 57.9364L100.485 45.702C103.091 47.2416 106.13 48.125 109.375 48.125 119.04 48.125 126.875 40.29 126.875 30.625 126.875 20.96 119.04 13.125 109.375 13.125 99.7097 13.125 91.8749 20.96 91.8749 30.625 91.8749 33.8704 92.7587 36.9095 94.2978 39.5149L82.0636 51.7492C78.6054 49.4588 74.4584 48.125 70 48.125 65.5415 48.125 61.3945 49.4588 57.9363 51.7492L45.702 39.5149C47.2415 36.9095 48.125 33.8704 48.125 30.625 48.125 20.96 40.29 13.125 30.625 13.125 20.96 13.125 13.125 20.96 13.125 30.625 13.125 40.29 20.96 48.125 30.625 48.125ZM30.625 39.375C35.4574 39.375 39.375 35.4574 39.375 30.625 39.375 25.7925 35.4574 21.875 30.625 21.875 25.7925 21.875 21.875 25.7925 21.875 30.625 21.875 35.4574 25.7925 39.375 30.625 39.375ZM109.375 39.375C114.208 39.375 118.125 35.4574 118.125 30.625 118.125 25.7925 114.208 21.875 109.375 21.875 104.542 21.875 100.625 25.7925 100.625 30.625 100.625 35.4574 104.542 39.375 109.375 39.375ZM39.375 109.375C39.375 114.208 35.4574 118.125 30.625 118.125 25.7925 118.125 21.875 114.208 21.875 109.375 21.875 104.542 25.7925 100.625 30.625 100.625 35.4574 100.625 39.375 104.542 39.375 109.375ZM70 56.875C62.7512 56.875 56.875 62.7512 56.875 70 56.875 77.2487 62.7512 83.1249 70 83.1249 77.2487 83.1249 83.1249 77.2487 83.1249 70 83.1249 62.7512 77.2487 56.875 70 56.875ZM118.125 109.375C118.125 114.208 114.208 118.125 109.375 118.125 104.542 118.125 100.625 114.208 100.625 109.375 100.625 104.542 104.542 100.625 109.375 100.625 114.208 100.625 118.125 104.542 118.125 109.375Z" fill="#FFFFFF" fill-rule="evenodd" fill-opacity="0.4" transform="matrix(1 0 0 1.0022 3586 815.846)"/></g></g></g><g><g><g><path d="M3705.08 1670.83 3684.17 1623.22 3684.17 1623.16 3684.1 1623.16 3666.24 1582.54 3699.85 1582.54 3703.25 1582.54 3703.25 1562.17 3696.46 1562.17 3696.46 1575.75 3665.9 1575.75 3665.9 1562.17 3659.1 1562.17 3659.1 1575.75 3628.54 1575.75 3628.54 1562.17 3621.75 1562.17 3621.75 1582.54 3625.28 1582.54 3658.76 1582.54 3619.92 1670.83 3705.08 1670.83ZM3693.81 1662.21 3645.25 1640.61 3679.95 1630.69 3693.81 1662.21ZM3643.55 1634.02 3650.95 1617.18 3672.42 1625.74 3643.55 1634.02ZM3681.24 1664.04 3630.38 1664.04 3638.66 1645.09 3681.24 1664.04ZM3653.67 1611 3662.5 1590.96 3675.06 1619.56 3653.67 1611Z" fill="#FFFFFF" fill-rule="nonzero" fill-opacity="0.4"/></g></g></g><path d="M3193.5 1211.06 3356.04 1211.06 3356.04 1465.02 3352.6 1461.58 3421.95 1461.58 3421.95 1468.46 3349.16 1468.46 3349.16 1214.5 3352.6 1217.94 3193.5 1217.94ZM3417.37 1451.27 3444.87 1465.02 3417.37 1478.77Z" fill="#1787B3" fill-rule="nonzero" fill-opacity="1"/><text fill="#000000" fill-opacity="1" font-family="Calibri,Calibri_MSFontService,sans-serif" font-style="normal" font-variant="normal" font-weight="400" font-stretch="normal" font-size="46" text-anchor="start" direction="ltr" writing-mode="lr-tb" unicode-bidi="normal" text-decoration="none" transform="matrix(1 0 0 1 1991.16 619)">Technical</text><text fill="#000000" fill-opacity="1" font-family="Calibri,Calibri_MSFontService,sans-serif" font-style="normal" font-variant="normal" font-weight="400" font-stretch="normal" font-size="46" text-anchor="start" direction="ltr" writing-mode="lr-tb" unicode-bidi="normal" text-decoration="none" transform="matrix(1 0 0 1 2396.16 622)">Financial</text><path d="M1782.5 1909.5 2295.04 1909.5" stroke="#1787B3" stroke-width="6.875" stroke-linecap="butt" stroke-linejoin="miter" stroke-miterlimit="8" stroke-opacity="1" fill="none" fill-rule="evenodd"/><text fill="#000000" fill-opacity="1" font-family="Calibri,Calibri_MSFontService,sans-serif" font-style="normal" font-variant="normal" font-weight="400" font-stretch="normal" font-size="46" text-anchor="start" direction="ltr" writing-mode="lr-tb" unicode-bidi="normal" text-decoration="none" transform="matrix(1 0 0 1 1392.57 617)">(Select one or more)</text><text fill="#000000" fill-opacity="1" font-family="Calibri,Calibri_MSFontService,sans-serif" font-style="normal" font-variant="normal" font-weight="400" font-stretch="normal" font-size="46" text-anchor="start" direction="ltr" writing-mode="lr-tb" unicode-bidi="normal" text-decoration="none" transform="matrix(1 0 0 1 257.812 889)">(Select one)</text><rect x="37.5" y="222.5" width="1775" height="2015" stroke="#334C66" stroke-width="6.875" stroke-linecap="butt" stroke-linejoin="miter" stroke-miterlimit="8" stroke-dasharray="27.5 20.625" stroke-opacity="1" fill="none"/><rect x="1853.5" y="218.5" width="2503" height="2015" stroke="#334C66" stroke-width="6.875" stroke-linecap="butt" stroke-linejoin="miter" stroke-miterlimit="8" stroke-dasharray="27.5 20.625" stroke-opacity="1" fill="none"/><text fill="#334C66" fill-opacity="1" font-family="Calibri,Calibri_MSFontService,sans-serif" font-style="normal" font-variant="normal" font-weight="400" font-stretch="normal" font-size="73" text-anchor="start" direction="ltr" writing-mode="lr-tb" unicode-bidi="normal" text-decoration="none" transform="matrix(1 0 0 1 217.597 305)">Step 2: Scenario Selection + Configuration &amp; </text><text fill="#334C66" fill-opacity="1" font-family="Calibri,Calibri_MSFontService,sans-serif" font-style="normal" font-variant="normal" font-weight="400" font-stretch="normal" font-size="73" text-anchor="start" direction="ltr" writing-mode="lr-tb" unicode-bidi="normal" text-decoration="none" transform="matrix(1 0 0 1 647.582 393)">Model Selection</text><text fill="#334C66" fill-opacity="1" font-family="Calibri,Calibri_MSFontService,sans-serif" font-style="normal" font-variant="normal" font-weight="400" font-stretch="normal" font-size="73" text-anchor="start" direction="ltr" writing-mode="lr-tb" unicode-bidi="normal" text-decoration="none" transform="matrix(1 0 0 1 2427.01 314)">Step 3: Model Configuration &amp; Dataset Selection</text><text fill="#334C66" fill-opacity="1" font-family="Calibri,Calibri_MSFontService,sans-serif" font-style="normal" font-variant="normal" font-weight="700" font-stretch="normal" font-size="73" text-anchor="start" direction="ltr" writing-mode="lr-tb" unicode-bidi="normal" text-decoration="none" transform="matrix(1 0 0 1 1876.6 2124)">Models</text><text fill="#334C66" fill-opacity="1" font-family="Calibri,Calibri_MSFontService,sans-serif" font-style="normal" font-variant="normal" font-weight="700" font-stretch="normal" font-size="73" text-anchor="start" direction="ltr" writing-mode="lr-tb" unicode-bidi="normal" text-decoration="none" transform="matrix(1 0 0 1 3389.95 2113)">Datasets</text><rect x="36.4999" y="46.4999" width="1257" height="122" stroke="#334C66" stroke-width="6.875" stroke-linecap="butt" stroke-linejoin="round" stroke-miterlimit="10" stroke-dasharray="27.5 20.625" stroke-opacity="1" fill="none"/><text fill="#0E2841" fill-opacity="1" font-family="Calibri,Calibri_MSFontService,sans-serif" font-style="normal" font-variant="normal" font-weight="400" font-stretch="normal" font-size="73" text-anchor="start" direction="ltr" writing-mode="lr-tb" unicode-bidi="normal" text-decoration="none" transform="matrix(1 0 0 1 147.41 132)">Step 0 (Optional) = Dataset Upload</text><rect x="1853.5" y="43.5002" width="953" height="123" stroke="#334C66" stroke-width="6.875" stroke-linecap="butt" stroke-linejoin="round" stroke-miterlimit="10" stroke-dasharray="27.5 20.625" stroke-opacity="1" fill="none"/><text fill="#0E2841" fill-opacity="1" font-family="Calibri,Calibri_MSFontService,sans-serif" font-style="normal" font-variant="normal" font-weight="400" font-stretch="normal" font-size="73" text-anchor="start" direction="ltr" writing-mode="lr-tb" unicode-bidi="normal" text-decoration="none" transform="matrix(1 0 0 1 1960.47 129)">Step 1 = Project Creation</text></g></g></svg>