<svg width="4268" height="1880" xmlns="http://www.w3.org/2000/svg" xmlns:xlink="http://www.w3.org/1999/xlink" xml:space="preserve" overflow="hidden"><g transform="translate(-132 -297)"><g><rect x="135" y="457" width="1147" height="1712" fill="#E8E8E8" fill-opacity="1"/><rect x="217" y="936" width="442" height="431" fill="#1787B3" fill-opacity="1"/><rect x="219" y="1408" width="442" height="431" fill="#1787B3" fill-opacity="1"/><path d="M659.5 1148.06 734.926 1148.06 734.926 1154.94 659.5 1154.94ZM730.343 1137.75 757.843 1151.5 730.343 1165.25Z" fill="#1787B3" fill-rule="nonzero" fill-opacity="1"/><path d="M656.5 1621.06 734.663 1621.06 734.663 1627.94 656.5 1627.94ZM730.08 1610.75 757.58 1624.5 730.08 1638.25Z" fill="#1787B3" fill-rule="nonzero" fill-opacity="1"/><text fill="#334C66" fill-opacity="1" font-family="Calibri,Calibri_MSFontService,sans-serif" font-style="normal" font-variant="normal" font-weight="700" font-stretch="normal" font-size="73" text-anchor="start" direction="ltr" writing-mode="lr-tb" unicode-bidi="normal" text-decoration="none" transform="matrix(1 0 0 1 562.364 393)">Scenarios</text><g><g><g><path d="M132.688 152.792 132.688 71.7317 137.191 76.2351 142.901 70.5255 132.688 60.3126 128.667 56.2917 124.646 60.3126 122.957 62.0013 114.433 70.5255 120.143 76.2351 124.646 71.7317 124.646 152.792 99.3951 152.792 99.3951 80.4167 91.3534 80.4167 91.3534 152.792 68.3542 152.792 68.3542 104.542 60.3126 104.542 60.3126 152.792 40.2084 152.792 40.2084 32.1667 32.1667 32.1667 32.1667 152.792 32.1667 160.833 40.2084 160.833 160.833 160.833 160.833 152.792Z" fill="#FFFFFF" fill-rule="nonzero" fill-opacity="0.4" transform="matrix(1 0 0 1.02072 349 1567)"/><path d="M60.3126 88.4584 68.3542 88.4584 68.3542 80.4167C75.0288 80.4167 80.4167 75.0288 80.4167 68.3542 80.4167 66.9067 80.1755 65.6201 79.693 64.3334 78.0847 59.6692 73.5813 56.2917 68.3542 56.2917L60.3126 56.2917C58.0609 56.2917 56.2917 54.5226 56.2917 52.2709 56.2917 50.0192 58.0609 48.25 60.3126 48.25L68.3542 48.25 80.4167 48.25 80.4167 40.2084 68.3542 40.2084 68.3542 32.1667 60.3126 32.1667 60.3126 40.2084C53.638 40.2084 48.25 45.5963 48.25 52.2709 48.25 53.7184 48.4913 55.0051 48.9738 56.2917 50.5821 60.9559 55.0855 64.3334 60.3126 64.3334L68.3542 64.3334C70.5255 64.3334 72.3751 66.1026 72.3751 68.3542 72.3751 70.6059 70.5255 72.3751 68.3542 72.3751L60.3126 72.3751 48.25 72.3751 48.25 80.4167 60.3126 80.4167 60.3126 88.4584Z" fill="#FFFFFF" fill-rule="nonzero" fill-opacity="0.4" transform="matrix(1 0 0 1.02072 349 1567)"/></g></g></g><text fill="#FFFFFF" fill-opacity="1" font-family="Calibri,Calibri_MSFontService,sans-serif" font-style="normal" font-variant="normal" font-weight="400" font-stretch="normal" font-size="50" text-anchor="start" direction="ltr" writing-mode="lr-tb" unicode-bidi="normal" text-decoration="none" transform="matrix(1 0 0 1 288.514 1518)">Maximise</text><text fill="#FFFFFF" fill-opacity="1" font-family="Calibri,Calibri_MSFontService,sans-serif" font-style="normal" font-variant="normal" font-weight="400" font-stretch="normal" font-size="50" text-anchor="start" direction="ltr" writing-mode="lr-tb" unicode-bidi="normal" text-decoration="none" transform="matrix(1 0 0 1 507.941 1518)">NPV</text><text fill="#FFFFFF" fill-opacity="1" font-family="Calibri,Calibri_MSFontService,sans-serif" font-style="normal" font-variant="normal" font-weight="400" font-stretch="normal" font-size="50" text-anchor="start" direction="ltr" writing-mode="lr-tb" unicode-bidi="normal" text-decoration="none" transform="matrix(1 0 0 1 288.239 1053)">Minimise</text><text fill="#FFFFFF" fill-opacity="1" font-family="Calibri,Calibri_MSFontService,sans-serif" font-style="normal" font-variant="normal" font-weight="400" font-stretch="normal" font-size="50" text-anchor="start" direction="ltr" writing-mode="lr-tb" unicode-bidi="normal" text-decoration="none" transform="matrix(1 0 0 1 499.645 1053)">TCO</text><g><g><g><path d="M41.25 156.75 41.25 33 33 33 33 165 37.125 165 41.25 165 165 165 165 156.75Z" fill="#FFFFFF" fill-rule="nonzero" fill-opacity="0.4" transform="matrix(1 0 0 1.0202 349 1088)"/><path d="M140.25 136.208 140.993 136.208 133.402 143.798 139.178 149.572 150.893 137.94 153.533 135.217 153.615 135.217 156.667 132.083 151.717 127.132 150.893 126.308 139.178 114.593 133.402 120.45 140.91 127.958 140.25 127.958C94.71 127.958 57.75 90.915 57.75 45.4575L49.5 45.4575C49.5 95.535 90.09 136.208 140.25 136.208Z" fill="#FFFFFF" fill-rule="nonzero" fill-opacity="0.4" transform="matrix(1 0 0 1.0202 349 1088)"/></g></g></g><text fill="#000000" fill-opacity="1" font-family="Calibri,Calibri_MSFontService,sans-serif" font-style="normal" font-variant="normal" font-weight="400" font-stretch="normal" font-size="55" text-anchor="start" direction="ltr" writing-mode="lr-tb" unicode-bidi="normal" text-decoration="none" transform="matrix(1 0 0 1 830.152 744)">Parameters</text><rect x="759" y="800" width="432" height="1155" fill="#334C66" fill-opacity="1"/><g><g><g><path d="M142.13 97.5326C142.13 112.723 136.236 127.021 125.529 137.799L123.012 140.331 112.476 129.679 117.513 124.699 122.936 130.184C129.997 122.008 133.978 111.857 134.734 101.076L127.3 101.076 127.3 93.9922 134.868 93.9922C134.075 82.7633 129.58 72.5633 122.571 64.5851L117.304 69.762 112.337 64.7123 117.544 59.596C109.626 52.7946 99.5785 48.447 88.5418 47.6679L88.5418 54.8065 81.458 54.8065 81.458 47.6679C70.2173 48.4603 60.0085 52.966 52.0259 59.9848L57.0061 64.968 51.9978 69.9764 47.0382 65.0138C40.2486 72.927 35.9084 82.9688 35.1323 93.9936L42.2649 93.9936 42.2649 101.077 35.1264 101.077C35.9527 111.289 40.2811 121.511 47.4122 129.943L52.4693 125.039 57.3949 130.13 47.1506 140.064 44.6878 137.497C34 126.368 27.8711 111.807 27.8711 97.5355 27.8711 66.0338 53.4997 40.4053 85.0014 40.4053 116.503 40.4053 142.132 66.0338 142.132 97.5355ZM109.245 78.9184 97.268 90.8257C98.3663 92.8273 99.0493 95.092 99.0493 97.5326 99.0493 105.28 92.7475 111.582 84.9999 111.582 77.2523 111.582 70.9505 105.28 70.9505 97.5326 70.9505 89.785 77.2523 83.4832 84.9999 83.4832 87.7317 83.4832 90.264 84.2992 92.4237 85.6533L104.251 73.8952 109.245 78.9169ZM91.9655 97.5326C91.9655 93.6936 88.8389 90.567 84.9999 90.567 81.1609 90.567 78.0343 93.6936 78.0343 97.5326 78.0343 101.372 81.1609 104.498 84.9999 104.498 88.8389 104.498 91.9655 101.372 91.9655 97.5326Z" fill="#FFFFFF" fill-rule="nonzero" fill-opacity="0.4" transform="matrix(1 0 0 1.01177 892 1713)"/></g></g></g><g><g><g><path d="M36.875 11.0625 36.875 18.4375 81.1249 18.4375 81.1249 11.0625 88.4999 11.0625 88.4999 18.4375 110.625 18.4375 110.625 103.25 7.37499 103.25 7.37499 18.4375 29.5 18.4375 29.5 11.0625 36.875 11.0625ZM103.25 47.9375 14.75 47.9375 14.75 95.8749 103.25 95.8749 103.25 47.9375ZM40.5625 77.4374 40.5625 84.8124 25.8125 84.8124 25.8125 77.4374 40.5625 77.4374ZM66.3749 77.4374 66.3749 84.8124 51.625 84.8124 51.625 77.4374 66.3749 77.4374ZM92.1874 77.4374 92.1874 84.8124 77.4374 84.8124 77.4374 77.4374 92.1874 77.4374ZM40.5625 59 40.5625 66.3749 25.8125 66.3749 25.8125 59 40.5625 59ZM66.3749 59 66.3749 66.3749 51.625 66.3749 51.625 59 66.3749 59ZM92.1874 59 92.1874 66.3749 77.4374 66.3749 77.4374 59 92.1874 59ZM29.5 25.8125 14.75 25.8125 14.75 40.5625 103.25 40.5625 103.25 25.8125 88.4999 25.8125 88.4999 33.1875 81.1249 33.1875 81.1249 25.8125 36.875 25.8125 36.875 33.1875 29.5 33.1875 29.5 25.8125Z" fill="#FFFFFF" fill-rule="evenodd" fill-opacity="0.4" transform="matrix(1 0 0 1.01695 912 1376)"/></g></g></g><g><g><g><path d="M133 29.0937 133 103.906 0 103.906 0 29.0937 133 29.0937ZM103.906 37.4062 29.0937 37.4062C29.0937 48.8857 19.7837 58.1874 8.31248 58.1874L8.31248 74.8123C19.7837 74.8123 29.0937 84.114 29.0937 95.5935L103.906 95.5935C103.906 84.114 113.216 74.8123 124.687 74.8123L124.687 58.1874C113.216 58.1874 103.906 48.8857 103.906 37.4062ZM124.687 83.1248C117.813 83.1248 112.218 88.7191 112.218 95.5935L124.687 95.5935 124.687 83.1248ZM8.31248 83.1248 8.31248 95.5935 20.7812 95.5935C20.7812 88.7191 15.1869 83.1248 8.31248 83.1248ZM66.4998 45.7186C77.9794 45.7186 87.281 55.0203 87.281 66.4998 87.281 77.9794 77.9794 87.281 66.4998 87.281 55.0203 87.281 45.7186 77.9794 45.7186 66.4998 45.7186 55.0203 55.0203 45.7186 66.4998 45.7186ZM66.4998 54.0311C59.6254 54.0311 54.0311 59.6254 54.0311 66.4998 54.0311 73.3743 59.6254 78.9686 66.4998 78.9686 73.3743 78.9686 78.9686 73.3743 78.9686 66.4998 78.9686 59.6254 73.3743 54.0311 66.4998 54.0311ZM124.687 37.4062 112.218 37.4062C112.218 44.2806 117.813 49.8749 124.687 49.8749L124.687 37.4062ZM20.7812 37.4062 8.31248 37.4062 8.31248 49.8749C15.1869 49.8749 20.7812 44.2806 20.7812 37.4062Z" fill="#FFFFFF" fill-rule="evenodd" fill-opacity="0.4" transform="matrix(1 0 0 1.03008 907 966)"/></g></g></g><text fill="#FFFFFF" fill-opacity="1" font-family="Calibri,Calibri_MSFontService,sans-serif" font-style="normal" font-variant="normal" font-weight="400" font-stretch="normal" font-size="50" text-anchor="start" direction="ltr" writing-mode="lr-tb" unicode-bidi="normal" text-decoration="none" transform="matrix(1 0 0 1 901.01 936)">Budget</text><text fill="#FFFFFF" fill-opacity="1" font-family="Calibri,Calibri_MSFontService,sans-serif" font-style="normal" font-variant="normal" font-weight="400" font-stretch="normal" font-size="50" text-anchor="start" direction="ltr" writing-mode="lr-tb" unicode-bidi="normal" text-decoration="none" transform="matrix(1 0 0 1 821.537 1698)">Demand / user</text><text fill="#FFFFFF" fill-opacity="1" font-family="Calibri,Calibri_MSFontService,sans-serif" font-style="normal" font-variant="normal" font-weight="400" font-stretch="normal" font-size="50" text-anchor="start" direction="ltr" writing-mode="lr-tb" unicode-bidi="normal" text-decoration="none" transform="matrix(1 0 0 1 805.335 1323)">Planning </text><text fill="#FFFFFF" fill-opacity="1" font-family="Calibri,Calibri_MSFontService,sans-serif" font-style="normal" font-variant="normal" font-weight="400" font-stretch="normal" font-size="50" text-anchor="start" direction="ltr" writing-mode="lr-tb" unicode-bidi="normal" text-decoration="none" transform="matrix(1 0 0 1 1015.02 1323)">p</text><text fill="#FFFFFF" fill-opacity="1" font-family="Calibri,Calibri_MSFontService,sans-serif" font-style="normal" font-variant="normal" font-weight="400" font-stretch="normal" font-size="50" text-anchor="start" direction="ltr" writing-mode="lr-tb" unicode-bidi="normal" text-decoration="none" transform="matrix(1 0 0 1 1041.38 1323)">eriod</text><path d="M757.5 1185.5 1191.21 1185.5" stroke="#E8E8E8" stroke-width="4.58333" stroke-linecap="butt" stroke-linejoin="miter" stroke-miterlimit="8" stroke-opacity="0.501961" fill="none" fill-rule="evenodd"/><path d="M757.5 1570.5 1191.21 1570.5" stroke="#E8E8E8" stroke-width="4.58333" stroke-linecap="butt" stroke-linejoin="miter" stroke-miterlimit="8" stroke-opacity="0.501961" fill="none" fill-rule="evenodd"/><text fill="#334C66" fill-opacity="1" font-family="Calibri,Calibri_MSFontService,sans-serif" font-style="normal" font-variant="normal" font-weight="700" font-stretch="normal" font-size="73" text-anchor="start" direction="ltr" writing-mode="lr-tb" unicode-bidi="normal" text-decoration="none" transform="matrix(1 0 0 1 1976.56 392)">Models</text><rect x="1392" y="457" width="1422" height="1712" fill="#E8E8E8" fill-opacity="1"/><rect x="1452" y="665" width="396" height="342" fill="#1787B3" fill-opacity="1"/><rect x="1451" y="1041" width="396" height="327" fill="#1787B3" fill-opacity="1"/><rect x="1450" y="1402" width="396" height="350" fill="#1787B3" fill-opacity="1"/><rect x="1452" y="1784" width="397" height="312" fill="#1787B3" fill-opacity="1"/><g><g><g><path d="M82.3966 72.3266C91.5166 71.63 100.51 70.0466 109.25 67.5133 110.96 70.11 113.873 71.82 117.167 71.82 122.423 71.82 126.667 67.5766 126.667 62.32 126.667 57.0633 122.423 52.82 117.167 52.82 112.29 52.82 108.237 56.5566 107.793 61.3066 99.4966 63.7133 91.01 65.2333 82.3966 65.93L82.3966 61.94C94.7466 59.5966 105.767 53.3266 114.127 43.8266 115.077 44.1433 116.153 44.3966 117.23 44.3966 122.487 44.3966 126.73 40.1533 126.73 34.8967 126.73 29.64 122.487 25.3967 117.23 25.3967 111.973 25.3967 107.667 29.64 107.667 34.8967 107.667 36.7333 108.237 38.4433 109.123 39.9 102.03 47.88 92.72 53.2633 82.3966 55.48L82.3966 50.54 69.6666 50.54 69.6666 44.2066 25.3333 44.2066 25.3333 107.54 69.6666 107.54 69.6666 101.207 82.3966 101.207 82.3966 95.6966C92.91 97.9133 102.347 103.487 109.44 111.657 108.363 113.177 107.667 115.077 107.667 117.103 107.667 122.36 111.91 126.603 117.167 126.603 122.423 126.603 126.667 122.36 126.667 117.103 126.667 111.847 122.423 107.603 117.167 107.603 116.28 107.603 115.457 107.793 114.633 107.983 106.273 98.1666 95 91.6433 82.3966 89.2366L82.3966 85.2466C91.01 85.9433 99.4966 87.4633 107.73 89.87 107.793 95.0633 112.037 99.2433 117.23 99.2433 122.487 99.2433 126.73 95 126.73 89.7433 126.73 84.4866 122.487 80.2433 117.23 80.2433 114.19 80.2433 111.53 81.7 109.82 83.8533 100.89 81.2566 91.7066 79.61 82.46 78.9133L82.46 72.3266ZM117.167 59.1533C118.94 59.1533 120.333 60.5466 120.333 62.32 120.333 64.0933 118.94 65.4866 117.167 65.4866 115.393 65.4866 114 64.03 114 62.32 114 60.61 115.457 59.1533 117.167 59.1533ZM117.167 31.73C118.94 31.73 120.333 33.1233 120.333 34.8967 120.333 36.67 118.94 38.0633 117.167 38.0633 115.393 38.0633 114 36.67 114 34.8967 114 33.1233 115.457 31.73 117.167 31.73ZM120.333 117.103C120.333 118.877 118.94 120.27 117.167 120.27 115.393 120.27 114 118.877 114 117.103 114 115.33 115.393 113.937 117.167 113.937 118.94 113.937 120.333 115.33 120.333 117.103ZM117.167 86.5133C118.94 86.5133 120.333 87.9066 120.333 89.68 120.333 91.4533 118.94 92.8466 117.167 92.8466 115.393 92.8466 114 91.4533 114 89.68 114 87.9066 115.457 86.5133 117.167 86.5133ZM31.6667 101.207 31.6667 50.54 63.3333 50.54 63.3333 101.207 31.6667 101.207ZM76.0633 94.8733 69.6666 94.8733 69.6666 56.8733 76.0633 56.8733 76.0633 94.8733Z" fill="#FFFFFF" fill-rule="nonzero" fill-opacity="0.4" transform="matrix(1 0 0 1.06579 1575 788)"/></g></g></g><g><g><g><path d="M78.8512 27.0308 85.6429 27.0308 85.6429 136.037 78.8512 136.037Z" fill="#FFFFFF" fill-rule="nonzero" fill-opacity="0.4" transform="matrix(1 0 0 1.06135 1567 1152)"/><path d="M92.3666 34.0262 99.1583 34.0262 99.1583 67.9846 92.3666 67.9846Z" fill="#FFFFFF" fill-rule="nonzero" fill-opacity="0.4" transform="matrix(1 0 0 1.06135 1567 1152)"/><path d="M65.2679 34.0262 72.0596 34.0262 72.0596 67.9846 65.2679 67.9846Z" fill="#FFFFFF" fill-rule="nonzero" fill-opacity="0.4" transform="matrix(1 0 0 1.06135 1567 1152)"/><path d="M107.037 38.5767 102.215 43.3987C104.456 45.3004 105.882 48.0171 105.882 51.2091 105.882 54.4012 104.388 57.1858 102.079 59.0875L106.901 63.9096C110.432 60.7854 112.674 56.3029 112.674 51.2091 112.742 46.1154 110.5 41.6329 107.037 38.5767Z" fill="#FFFFFF" fill-rule="nonzero" fill-opacity="0.4" transform="matrix(1 0 0 1.06135 1567 1152)"/><path d="M117.564 31.1737 112.742 35.9958C116.817 39.7312 119.465 45.0287 119.465 51.0054 119.465 57.05 116.817 62.3475 112.606 66.0829L117.428 70.905C122.793 65.9471 126.257 58.8837 126.257 51.0054 126.257 43.1271 122.929 36.1317 117.564 31.1737Z" fill="#FFFFFF" fill-rule="nonzero" fill-opacity="0.4" transform="matrix(1 0 0 1.06135 1567 1152)"/><path d="M62.0758 43.3308 57.3216 38.5767C53.8579 41.6329 51.6166 46.1154 51.6166 51.1412 51.6166 56.235 53.8579 60.7175 57.3896 63.8416L62.2116 59.0196C59.9025 57.1179 58.4083 54.3333 58.4083 51.1412 58.4083 48.0171 59.8346 45.2325 62.0758 43.3308Z" fill="#FFFFFF" fill-rule="nonzero" fill-opacity="0.4" transform="matrix(1 0 0 1.06135 1567 1152)"/><path d="M51.6166 35.9958 46.7946 31.1737C41.4291 36.1317 38.1012 43.1271 38.1012 51.0054 38.1012 58.8837 41.565 65.9471 46.9304 70.905L51.7525 66.0829C47.5416 62.3475 44.8929 56.9821 44.8929 51.0054 44.8929 45.0287 47.4737 39.7312 51.6166 35.9958Z" fill="#FFFFFF" fill-rule="nonzero" fill-opacity="0.4" transform="matrix(1 0 0 1.06135 1567 1152)"/></g></g></g><text fill="#FFFFFF" fill-opacity="1" font-family="Calibri,Calibri_MSFontService,sans-serif" font-style="normal" font-variant="normal" font-weight="400" font-stretch="normal" font-size="50" text-anchor="start" direction="ltr" writing-mode="lr-tb" unicode-bidi="normal" text-decoration="none" transform="matrix(1 0 0 1 1597.06 757)">Fibre</text><g><g><g><path d="M100.7 82.0836 93.6774 89.1061 88.9736 84.4024 117.064 56.3124 103.019 42.2674 74.9287 70.3574 70.2249 65.6537 77.2474 58.6312 44.3874 25.8375 25.6387 44.5862 58.4324 77.3799 65.4549 70.3574 70.1587 75.0612 51.2774 93.9424 55.9812 98.6461 51.0787 103.549C47.6337 101.097 43.6587 99.8386 39.6175 99.8386 34.5162 99.8386 29.415 101.76 25.5725 105.669 25.5725 105.669 25.5725 105.669 25.5725 105.669L37.2987 117.395 27.9575 126.736 32.6612 131.44 42.0024 122.099 53.7287 133.825C53.7287 133.825 53.7287 133.825 53.7287 133.825 60.6849 126.869 61.3474 116.07 55.8487 108.319L60.7512 103.416 65.4549 108.12 84.3361 89.2386 89.0399 93.9424 82.0174 100.965 114.811 133.759 133.56 115.01 100.7 82.0836ZM44.3874 35.1787 53.7287 44.5199 44.3874 53.9274 35.0462 44.5862 44.3874 35.1787ZM49.1574 58.6974 58.4987 49.3562 67.8399 58.6974 58.4987 68.0387 49.1574 58.6974ZM52.4037 123.159 36.1725 106.927C37.2987 106.662 38.425 106.464 39.6175 106.464 43.1287 106.464 46.5074 107.855 48.9587 110.372 51.4762 112.89 52.8674 116.202 52.8674 119.714 52.8674 120.84 52.6687 122.032 52.4037 123.159ZM60.6849 93.9424 102.952 51.6749 107.656 56.3787 65.3887 98.6461 60.6849 93.9424ZM100.7 91.4911 110.041 100.832 100.7 110.174 91.3586 100.832 100.7 91.4911ZM105.404 114.944 114.745 105.602 124.086 114.944 114.745 124.285 105.404 114.944Z" fill="#FFFFFF" fill-rule="nonzero" fill-opacity="0.4" transform="matrix(1 0 0 1.06918 1577 1883)"/></g></g></g><text fill="#FFFFFF" fill-opacity="1" font-family="Calibri,Calibri_MSFontService,sans-serif" font-style="normal" font-variant="normal" font-weight="400" font-stretch="normal" font-size="50" text-anchor="start" direction="ltr" writing-mode="lr-tb" unicode-bidi="normal" text-decoration="none" transform="matrix(1 0 0 1 1570.57 1132)">Cellular</text><text fill="#FFFFFF" fill-opacity="1" font-family="Calibri,Calibri_MSFontService,sans-serif" font-style="normal" font-variant="normal" font-weight="400" font-stretch="normal" font-size="50" text-anchor="start" direction="ltr" writing-mode="lr-tb" unicode-bidi="normal" text-decoration="none" transform="matrix(1 0 0 1 1565.32 1870)">Satellite</text><text fill="#FFFFFF" fill-opacity="1" font-family="Calibri,Calibri_MSFontService,sans-serif" font-style="normal" font-variant="normal" font-weight="400" font-stretch="normal" font-size="50" text-anchor="start" direction="ltr" writing-mode="lr-tb" unicode-bidi="normal" text-decoration="none" transform="matrix(1 0 0 1 1497.46 1500)">Point</text><text fill="#FFFFFF" fill-opacity="1" font-family="Calibri,Calibri_MSFontService,sans-serif" font-style="normal" font-variant="normal" font-weight="400" font-stretch="normal" font-size="50" text-anchor="start" direction="ltr" writing-mode="lr-tb" unicode-bidi="normal" text-decoration="none" transform="matrix(1 0 0 1 1615.48 1500)">-</text><text fill="#FFFFFF" fill-opacity="1" font-family="Calibri,Calibri_MSFontService,sans-serif" font-style="normal" font-variant="normal" font-weight="400" font-stretch="normal" font-size="50" text-anchor="start" direction="ltr" writing-mode="lr-tb" unicode-bidi="normal" text-decoration="none" transform="matrix(1 0 0 1 1630.95 1500)">to</text><text fill="#FFFFFF" fill-opacity="1" font-family="Calibri,Calibri_MSFontService,sans-serif" font-style="normal" font-variant="normal" font-weight="400" font-stretch="normal" font-size="50" text-anchor="start" direction="ltr" writing-mode="lr-tb" unicode-bidi="normal" text-decoration="none" transform="matrix(1 0 0 1 1673.92 1500)">-</text><text fill="#FFFFFF" fill-opacity="1" font-family="Calibri,Calibri_MSFontService,sans-serif" font-style="normal" font-variant="normal" font-weight="400" font-stretch="normal" font-size="50" text-anchor="start" direction="ltr" writing-mode="lr-tb" unicode-bidi="normal" text-decoration="none" transform="matrix(1 0 0 1 1689.39 1500)">Point</text><g><g><g><path d="M73.3125 62.475 79.6875 62.475 79.6875 127.882 73.3125 127.882Z" fill="#FFFFFF" fill-rule="nonzero" fill-opacity="0.4" transform="matrix(1 0 0 1.06536 1493 1541)"/><path d="M81.4087 48.1312C81.4087 50.7719 79.2681 52.9125 76.6275 52.9125 73.9869 52.9125 71.8462 50.7719 71.8462 48.1312 71.8462 45.4906 73.9869 43.35 76.6275 43.35 79.2681 43.35 81.4087 45.4906 81.4087 48.1312Z" fill="#FFFFFF" fill-rule="nonzero" fill-opacity="0.4" transform="matrix(1 0 0 1.06536 1493 1541)"/><path d="M87.8475 35.0625C87.9112 35.1262 87.975 35.19 88.0387 35.2537L88.1662 35.0625 87.8475 35.0625Z" fill="#FFFFFF" fill-rule="nonzero" fill-opacity="0.4" transform="matrix(1 0 0 1.06536 1493 1541)"/><path d="M89.9512 37.23C89.3775 36.5287 88.6762 35.8275 87.975 35.2537L83.7037 39.6525C86.2537 41.7562 87.72 44.88 87.72 48.1312 87.6562 51.51 86.1262 54.6975 83.4487 56.8012L87.7837 61.455C95.115 55.3987 96.0712 44.4975 89.9512 37.23Z" fill="#FFFFFF" fill-rule="nonzero" fill-opacity="0.4" transform="matrix(1 0 0 1.06536 1493 1541)"/><path d="M99.5137 28.6875C98.7487 27.795 97.92 26.9662 97.0275 26.1375L97.0275 25.9462 92.6287 30.4725C102.382 39.1425 103.211 54.06 94.605 63.75 93.84 64.5787 93.075 65.3437 92.1825 66.1087L96.5175 70.7625C108.949 59.9887 110.287 41.1187 99.5137 28.6875Z" fill="#FFFFFF" fill-rule="nonzero" fill-opacity="0.4" transform="matrix(1 0 0 1.06536 1493 1541)"/></g></g></g><g><g><g><path d="M72.475 73.9916 26.7042 67.925 27.4083 62.5625 63.05 67.275 57.4708 56.0083 103.296 62.5625 102.537 67.925 66.8958 62.8333Z" fill="#FFFFFF" fill-rule="nonzero" fill-opacity="0.4" transform="matrix(1 0 0 1.06923 1587 1522)"/></g></g></g><g><g><g><path d="M73.3125 62.475 79.6875 62.475 79.6875 127.882 73.3125 127.882Z" fill="#FFFFFF" fill-rule="nonzero" fill-opacity="0.4" transform="matrix(-1 0 0 1.0719 1808 1542)"/><path d="M81.4087 48.1312C81.4087 50.7719 79.2681 52.9125 76.6275 52.9125 73.9869 52.9125 71.8462 50.7719 71.8462 48.1312 71.8462 45.4906 73.9869 43.35 76.6275 43.35 79.2681 43.35 81.4087 45.4906 81.4087 48.1312Z" fill="#FFFFFF" fill-rule="nonzero" fill-opacity="0.4" transform="matrix(-1 0 0 1.0719 1808 1542)"/><path d="M87.8475 35.0625C87.9112 35.1262 87.975 35.19 88.0387 35.2537L88.1662 35.0625 87.8475 35.0625Z" fill="#FFFFFF" fill-rule="nonzero" fill-opacity="0.4" transform="matrix(-1 0 0 1.0719 1808 1542)"/><path d="M89.9512 37.23C89.3775 36.5287 88.6762 35.8275 87.975 35.2537L83.7037 39.6525C86.2537 41.7562 87.72 44.88 87.72 48.1312 87.6562 51.51 86.1262 54.6975 83.4487 56.8012L87.7837 61.455C95.115 55.3987 96.0712 44.4975 89.9512 37.23Z" fill="#FFFFFF" fill-rule="nonzero" fill-opacity="0.4" transform="matrix(-1 0 0 1.0719 1808 1542)"/><path d="M99.5137 28.6875C98.7487 27.795 97.92 26.9662 97.0275 26.1375L97.0275 25.9462 92.6287 30.4725C102.382 39.1425 103.211 54.06 94.605 63.75 93.84 64.5787 93.075 65.3437 92.1825 66.1087L96.5175 70.7625C108.949 59.9887 110.287 41.1187 99.5137 28.6875Z" fill="#FFFFFF" fill-rule="nonzero" fill-opacity="0.4" transform="matrix(-1 0 0 1.0719 1808 1542)"/></g></g></g><text fill="#000000" fill-opacity="1" font-family="Calibri,Calibri_MSFontService,sans-serif" font-style="normal" font-variant="normal" font-weight="400" font-stretch="normal" font-size="55" text-anchor="start" direction="ltr" writing-mode="lr-tb" unicode-bidi="normal" text-decoration="none" transform="matrix(1 0 0 1 2217.52 566)">Parameters</text><rect x="1940" y="663" width="797" height="1431" fill="#334C66" fill-opacity="1"/><path d="M1847.5 856.062 1918.7 856.063 1918.7 862.938 1847.5 862.937ZM1914.12 845.75 1941.62 859.5 1914.12 873.25Z" fill="#1787B3" fill-rule="nonzero" fill-opacity="1"/><path d="M1850.5 1224.06 1918.99 1224.06 1918.99 1230.94 1850.5 1230.94ZM1914.4 1213.75 1941.9 1227.5 1914.4 1241.25Z" fill="#1787B3" fill-rule="nonzero" fill-opacity="1"/><path d="M1847.5 1580.06 1918.7 1580.06 1918.7 1586.94 1847.5 1586.94ZM1914.12 1569.75 1941.62 1583.5 1914.12 1597.25Z" fill="#1787B3" fill-rule="nonzero" fill-opacity="1"/><path d="M2361.5 663.5 2361.5 2094.12" stroke="#E8E8E8" stroke-width="4.58333" stroke-linecap="butt" stroke-linejoin="miter" stroke-miterlimit="8" stroke-dasharray="18.3333 13.75" stroke-opacity="0.501961" fill="none" fill-rule="evenodd"/><path d="M1940.5 1035.5 2760.45 1035.5" stroke="#E8E8E8" stroke-width="4.58333" stroke-linecap="butt" stroke-linejoin="miter" stroke-miterlimit="8" stroke-opacity="0.501961" fill="none" fill-rule="evenodd"/><path d="M1940.5 1402.5 2760.45 1402.5" stroke="#E8E8E8" stroke-width="4.58333" stroke-linecap="butt" stroke-linejoin="miter" stroke-miterlimit="8" stroke-opacity="0.501961" fill="none" fill-rule="evenodd"/><path d="M1940.5 1752.5 2756.87 1752.5" stroke="#E8E8E8" stroke-width="4.58333" stroke-linecap="butt" stroke-linejoin="miter" stroke-miterlimit="8" stroke-opacity="0.501961" fill="none" fill-rule="evenodd"/><rect x="1939" y="1752" width="422" height="380" fill="#E8E8E8" fill-opacity="1"/><text fill="#FFFFFF" fill-opacity="1" font-family="Calibri,Calibri_MSFontService,sans-serif" font-style="normal" font-variant="normal" font-weight="400" font-stretch="normal" font-size="50" text-anchor="start" direction="ltr" writing-mode="lr-tb" unicode-bidi="normal" text-decoration="none" transform="matrix(1 0 0 1 2501.79 1856)">Cost</text><g><g><g><path d="M37.5 15.0004 37.5 35.6254 30 35.6254 30 26.4584C20.7888 34.7023 15 46.6755 15 60.0004 15 84.8535 35.1472 105 60 105 62.3582 105 64.6717 104.819 66.9277 104.471L68.0722 111.883C65.4388 112.29 62.7427 112.5 60 112.5 31.0051 112.5 7.5 88.995 7.5 60.0004 7.5 45.3079 13.5378 32.026 23.258 22.5004L15 22.5004 15 15.0004 37.5 15.0004ZM60 7.50037C88.995 7.50037 112.5 31.0054 112.5 60.0004 112.5 74.6925 106.462 87.975 96.7417 97.5L105 97.5 105 105 82.5 105 82.5 84.375 90 84.375 90 93.5422C99.2115 85.2982 105 73.3255 105 60.0004 105 35.1475 84.8527 15.0004 60 15.0004 57.6418 15.0004 55.3283 15.1814 53.0722 15.5298L51.9277 8.11762C54.5612 7.71097 57.2572 7.50037 60 7.50037ZM63.75 26.25 63.75 37.5 78.75 37.5 78.75 45 50.625 45C47.5184 45 45 47.5184 45 50.625 45 53.7316 47.5184 56.25 50.625 56.25L69.375 56.25C76.6237 56.25 82.5 62.1262 82.5 69.375 82.5 76.6237 76.6237 82.5 69.375 82.5L63.75 82.5 63.75 93.75 56.25 93.75 56.25 82.5 41.25 82.5 41.25 75 69.375 75C72.4816 75 75 72.4816 75 69.375 75 66.2684 72.4816 63.75 69.375 63.75L50.625 63.75C43.3762 63.75 37.5 57.8737 37.5 50.625 37.5 43.3762 43.3762 37.5 50.625 37.5L56.25 37.5 56.25 26.25 63.75 26.25Z" fill="#FFFFFF" fill-rule="evenodd" fill-opacity="0.4" transform="matrix(1 0 0 1.07737 2491 1892.86)"/></g></g></g><text fill="#FFFFFF" fill-opacity="1" font-family="Calibri,Calibri_MSFontService,sans-serif" font-style="normal" font-variant="normal" font-weight="400" font-stretch="normal" font-size="50" text-anchor="start" direction="ltr" writing-mode="lr-tb" unicode-bidi="normal" text-decoration="none" transform="matrix(1 0 0 1 2503.74 1504)">Cost</text><g><g><g><path d="M37.8125 15.1254 37.8125 35.9223 30.25 35.9223 30.25 26.6789C20.962 34.9915 15.125 47.0645 15.125 60.5004 15.125 85.5606 35.4401 105.875 60.5 105.875 62.8779 105.875 65.2106 105.693 67.4855 105.342L68.6395 112.815C65.9841 113.226 63.2656 113.438 60.5 113.438 31.2634 113.438 7.5625 89.7366 7.5625 60.5004 7.5625 45.6854 13.6506 32.2929 23.4518 22.6879L15.125 22.6879 15.125 15.1254 37.8125 15.1254ZM60.5 7.56288C89.7366 7.56288 113.438 31.2638 113.438 60.5004 113.438 75.3149 107.349 88.7081 97.5479 98.3125L105.875 98.3125 105.875 105.875 83.1875 105.875 83.1875 85.0781 90.75 85.0781 90.75 94.3218C100.038 86.0091 105.875 73.9365 105.875 60.5004 105.875 35.4404 85.5599 15.1254 60.5 15.1254 58.1221 15.1254 55.7894 15.3079 53.5145 15.6592L52.3605 8.18527C55.0159 7.77523 57.7344 7.56288 60.5 7.56288ZM64.2812 26.4688 64.2812 37.8125 79.4062 37.8125 79.4062 45.375 51.0469 45.375C47.9144 45.375 45.375 47.9144 45.375 51.0469 45.375 54.1793 47.9144 56.7188 51.0469 56.7188L69.9531 56.7188C77.2623 56.7188 83.1875 62.644 83.1875 69.9531 83.1875 77.2623 77.2623 83.1875 69.9531 83.1875L64.2812 83.1875 64.2812 94.5312 56.7188 94.5312 56.7188 83.1875 41.5938 83.1875 41.5938 75.625 69.9531 75.625C73.0856 75.625 75.625 73.0857 75.625 69.9531 75.625 66.8207 73.0856 64.2812 69.9531 64.2812L51.0469 64.2812C43.7377 64.2812 37.8125 58.356 37.8125 51.0469 37.8125 43.7377 43.7377 37.8125 51.0469 37.8125L56.7188 37.8125 56.7188 26.4688 64.2812 26.4688Z" fill="#FFFFFF" fill-rule="evenodd" fill-opacity="0.4" transform="matrix(1 0 0 1.06018 2494 1550.86)"/></g></g></g><text fill="#FFFFFF" fill-opacity="1" font-family="Calibri,Calibri_MSFontService,sans-serif" font-style="normal" font-variant="normal" font-weight="400" font-stretch="normal" font-size="50" text-anchor="start" direction="ltr" writing-mode="lr-tb" unicode-bidi="normal" text-decoration="none" transform="matrix(1 0 0 1 2503.36 1134)">Cost</text><g><g><g><path d="M37.8125 15.1254 37.8125 35.9223 30.25 35.9223 30.25 26.6789C20.962 34.9915 15.125 47.0645 15.125 60.5004 15.125 85.5606 35.4401 105.875 60.5 105.875 62.8779 105.875 65.2106 105.693 67.4855 105.342L68.6395 112.815C65.9841 113.226 63.2656 113.438 60.5 113.438 31.2634 113.438 7.5625 89.7366 7.5625 60.5004 7.5625 45.6854 13.6506 32.2929 23.4518 22.6879L15.125 22.6879 15.125 15.1254 37.8125 15.1254ZM60.5 7.56288C89.7366 7.56288 113.438 31.2638 113.438 60.5004 113.438 75.3149 107.349 88.7081 97.5479 98.3125L105.875 98.3125 105.875 105.875 83.1875 105.875 83.1875 85.0781 90.75 85.0781 90.75 94.3218C100.038 86.0091 105.875 73.9365 105.875 60.5004 105.875 35.4404 85.5599 15.1254 60.5 15.1254 58.1221 15.1254 55.7894 15.3079 53.5145 15.6592L52.3605 8.18527C55.0159 7.77523 57.7344 7.56288 60.5 7.56288ZM64.2812 26.4688 64.2812 37.8125 79.4062 37.8125 79.4062 45.375 51.0469 45.375C47.9144 45.375 45.375 47.9144 45.375 51.0469 45.375 54.1793 47.9144 56.7188 51.0469 56.7188L69.9531 56.7188C77.2623 56.7188 83.1875 62.644 83.1875 69.9531 83.1875 77.2623 77.2623 83.1875 69.9531 83.1875L64.2812 83.1875 64.2812 94.5312 56.7188 94.5312 56.7188 83.1875 41.5938 83.1875 41.5938 75.625 69.9531 75.625C73.0856 75.625 75.625 73.0857 75.625 69.9531 75.625 66.8207 73.0856 64.2812 69.9531 64.2812L51.0469 64.2812C43.7377 64.2812 37.8125 58.356 37.8125 51.0469 37.8125 43.7377 43.7377 37.8125 51.0469 37.8125L56.7188 37.8125 56.7188 26.4688 64.2812 26.4688Z" fill="#FFFFFF" fill-rule="evenodd" fill-opacity="0.4" transform="matrix(1 0 0 1.06019 2493 1193.86)"/></g></g></g><text fill="#FFFFFF" fill-opacity="1" font-family="Calibri,Calibri_MSFontService,sans-serif" font-style="normal" font-variant="normal" font-weight="400" font-stretch="normal" font-size="50" text-anchor="start" direction="ltr" writing-mode="lr-tb" unicode-bidi="normal" text-decoration="none" transform="matrix(1 0 0 1 2502.46 771)">Cost</text><g><g><g><path d="M37.5001 15.0004 37.5001 35.6255 30.0001 35.6255 30.0001 26.4585C20.7889 34.7024 15 46.6756 15 60.0005 15 84.8537 35.1473 105 60.0002 105 62.3584 105 64.6719 104.82 66.9279 104.472L68.0724 111.883C65.439 112.29 62.7429 112.5 60.0002 112.5 31.0052 112.5 7.50002 88.9952 7.50002 60.0005 7.50002 45.308 13.5378 32.0261 23.2581 22.5004L15 22.5004 15 15.0004 37.5001 15.0004ZM60.0002 7.5004C88.9952 7.5004 112.5 31.0055 112.5 60.0005 112.5 74.6927 106.462 87.9752 96.742 97.5003L105 97.5003 105 105 82.5002 105 82.5002 84.3752 90.0002 84.3752 90.0002 93.5425C99.2118 85.2985 105 73.3257 105 60.0005 105 35.1476 84.853 15.0004 60.0002 15.0004 57.6419 15.0004 55.3285 15.1815 53.0724 15.5298L51.9279 8.11765C54.5614 7.711 57.2574 7.5004 60.0002 7.5004ZM63.7502 26.2501 63.7502 37.5001 78.7502 37.5001 78.7502 45.0001 50.6251 45.0001C47.5186 45.0001 45.0001 47.5186 45.0001 50.6251 45.0001 53.7317 47.5186 56.2502 50.6251 56.2502L69.3752 56.2502C76.624 56.2502 82.5002 62.1264 82.5002 69.3752 82.5002 76.624 76.624 82.5002 69.3752 82.5002L63.7502 82.5002 63.7502 93.7503 56.2502 93.7503 56.2502 82.5002 41.2501 82.5002 41.2501 75.0002 69.3752 75.0002C72.4818 75.0002 75.0002 72.4818 75.0002 69.3752 75.0002 66.2686 72.4818 63.7502 69.3752 63.7502L50.6251 63.7502C43.3764 63.7502 37.5001 57.8739 37.5001 50.6251 37.5001 43.3764 43.3764 37.5001 50.6251 37.5001L56.2502 37.5001 56.2502 26.2501 63.7502 26.2501Z" fill="#FFFFFF" fill-rule="evenodd" fill-opacity="0.4" transform="matrix(1 0 0 1.07737 2492 832.858)"/></g></g></g><text fill="#FFFFFF" fill-opacity="1" font-family="Calibri,Calibri_MSFontService,sans-serif" font-style="normal" font-variant="normal" font-weight="400" font-stretch="normal" font-size="50" text-anchor="start" direction="ltr" writing-mode="lr-tb" unicode-bidi="normal" text-decoration="none" transform="matrix(1 0 0 1 2011.41 1501)">Search radius</text><text fill="#FFFFFF" fill-opacity="1" font-family="Calibri,Calibri_MSFontService,sans-serif" font-style="normal" font-variant="normal" font-weight="400" font-stretch="normal" font-size="50" text-anchor="start" direction="ltr" writing-mode="lr-tb" unicode-bidi="normal" text-decoration="none" transform="matrix(1 0 0 1 2054.82 1137)">Coverage</text><text fill="#FFFFFF" fill-opacity="1" font-family="Calibri,Calibri_MSFontService,sans-serif" font-style="normal" font-variant="normal" font-weight="400" font-stretch="normal" font-size="50" text-anchor="start" direction="ltr" writing-mode="lr-tb" unicode-bidi="normal" text-decoration="none" transform="matrix(1 0 0 1 1981.7 753)">Max. connection </text><text fill="#FFFFFF" fill-opacity="1" font-family="Calibri,Calibri_MSFontService,sans-serif" font-style="normal" font-variant="normal" font-weight="400" font-stretch="normal" font-size="50" text-anchor="start" direction="ltr" writing-mode="lr-tb" unicode-bidi="normal" text-decoration="none" transform="matrix(1 0 0 1 2087.12 814)">length</text><g><g><g><path d="M80.8783 86.1374C73.1037 92.7188 63.0465 96.6874 52.0625 96.6874 27.4168 96.6874 7.4375 76.7081 7.4375 52.0625 7.4375 27.4168 27.4168 7.4375 52.0625 7.4375 76.7081 7.4375 96.6874 27.4168 96.6874 52.0625 96.6874 63.0465 92.7188 73.1037 86.1374 80.8783L111.562 106.303 106.303 111.562 80.8783 86.1374ZM89.2499 52.0625C89.2499 72.6005 72.6005 89.2499 52.0625 89.2499 31.5244 89.2499 14.875 72.6005 14.875 52.0625 14.875 31.5244 31.5244 14.875 52.0625 14.875 72.6005 14.875 89.2499 31.5244 89.2499 52.0625Z" fill="#FFFFFF" fill-rule="evenodd" fill-opacity="0.4" transform="matrix(1 0 0 1.05883 2093 1551)"/></g></g></g><g><g><g><path d="M105.271 27.1667 57.7291 27.1667C52.0921 27.1667 47.5416 31.7171 47.5416 37.3542L47.5416 125.646C47.5416 131.283 52.0921 135.833 57.7291 135.833L105.271 135.833C110.908 135.833 115.458 131.283 115.458 125.646L115.458 37.3542C115.458 31.7171 110.908 27.1667 105.271 27.1667ZM108.667 125.646C108.667 127.547 107.172 129.042 105.271 129.042L57.7291 129.042C55.8275 129.042 54.3333 127.547 54.3333 125.646L54.3333 37.3542C54.3333 35.4525 55.8275 33.9583 57.7291 33.9583L105.271 33.9583C107.172 33.9583 108.667 35.4525 108.667 37.3542L108.667 125.646Z" fill="#FFFFFF" fill-rule="nonzero" fill-opacity="0.4" transform="matrix(1 0 0 1.06748 2073 1170)"/><path d="M86.5937 115.458C86.5937 118.271 84.3132 120.552 81.5 120.552 78.6868 120.552 76.4062 118.271 76.4062 115.458 76.4062 112.645 78.6868 110.365 81.5 110.365 84.3132 110.365 86.5937 112.645 86.5937 115.458Z" fill="#FFFFFF" fill-rule="nonzero" fill-opacity="0.4" transform="matrix(1 0 0 1.06748 2073 1170)"/><path d="M91.6875 67.9166 98.4791 67.9166 98.4791 95.0833 91.6875 95.0833Z" fill="#FFFFFF" fill-rule="nonzero" fill-opacity="0.4" transform="matrix(1 0 0 1.06748 2073 1170)"/><path d="M78.1041 74.7762 84.8958 74.7762 84.8958 95.1512 78.1041 95.1512Z" fill="#FFFFFF" fill-rule="nonzero" fill-opacity="0.4" transform="matrix(1 0 0 1.06748 2073 1170)"/><path d="M64.5208 81.4321 71.3125 81.4321 71.3125 95.2191 64.5208 95.2191Z" fill="#FFFFFF" fill-rule="nonzero" fill-opacity="0.4" transform="matrix(1 0 0 1.06748 2073 1170)"/></g></g></g><path d="M2316.5 856.062 2387.7 856.063 2387.7 862.938 2316.5 862.937ZM2383.12 845.75 2410.62 859.5 2383.12 873.25Z" fill="#FFFFFF" fill-rule="nonzero" fill-opacity="1"/><path d="M2319.5 1224.06 2387.99 1224.06 2387.99 1230.94 2319.5 1230.94ZM2383.4 1213.75 2410.9 1227.5 2383.4 1241.25Z" fill="#FFFFFF" fill-rule="nonzero" fill-opacity="1"/><path d="M2316.5 1580.06 2387.7 1580.06 2387.7 1586.94 2316.5 1586.94ZM2383.12 1569.75 2410.62 1583.5 2383.12 1597.25Z" fill="#FFFFFF" fill-rule="nonzero" fill-opacity="1"/><path d="M2363.5 1923.06 2387.64 1923.06 2387.64 1929.94 2363.5 1929.94ZM2383.06 1912.75 2410.56 1926.5 2383.06 1940.25Z" fill="#FFFFFF" fill-rule="nonzero" fill-opacity="1"/><g><g><g><path d="M109.468 35.3124 77.6873 3.53124 3.53124 77.6873 35.3124 109.468 109.468 35.3124ZM35.3124 99.4807 13.5191 77.6873 21.9188 69.2876 27.5186 74.8877 32.5125 69.8935 26.9127 64.2937 32.5125 58.6939 43.4092 69.5906 48.4031 64.5967 37.5065 53.7 43.1062 48.1002 48.7061 53.7 53.6999 48.7061 48.1002 43.1063 53.6999 37.5065 64.5967 48.4032 69.5905 43.4092 58.6939 32.5126 64.2937 26.9127 69.8935 32.5126 74.8877 27.5186 69.2876 21.9188 77.6873 13.5191 99.4807 35.3124 35.3124 99.4807Z" fill="#FFFFFF" fill-rule="evenodd" fill-opacity="0.4" transform="matrix(1 0 0 1.0708 2093 843)"/></g></g></g><rect x="2926" y="457" width="1474" height="1712" fill="#E8E8E8" fill-opacity="1"/><rect x="2983" y="693" width="413" height="343" fill="#1787B3" fill-opacity="1"/><rect x="2981" y="1406" width="413" height="350" fill="#1787B3" fill-opacity="1"/><text fill="#334C66" fill-opacity="1" font-family="Calibri,Calibri_MSFontService,sans-serif" font-style="normal" font-variant="normal" font-weight="700" font-stretch="normal" font-size="73" text-anchor="start" direction="ltr" writing-mode="lr-tb" unicode-bidi="normal" text-decoration="none" transform="matrix(1 0 0 1 3508.65 392)">Datasets</text><text fill="#FFFFFF" fill-opacity="1" font-family="Calibri,Calibri_MSFontService,sans-serif" font-style="normal" font-variant="normal" font-weight="400" font-stretch="normal" font-size="50" text-anchor="start" direction="ltr" writing-mode="lr-tb" unicode-bidi="normal" text-decoration="none" transform="matrix(1 0 0 1 3044.85 789)">Road network</text><text fill="#FFFFFF" fill-opacity="1" font-family="Calibri,Calibri_MSFontService,sans-serif" font-style="normal" font-variant="normal" font-weight="400" font-stretch="normal" font-size="50" text-anchor="start" direction="ltr" writing-mode="lr-tb" unicode-bidi="normal" text-decoration="none" transform="matrix(1 0 0 1 3120.16 1486)">Digital </text><text fill="#FFFFFF" fill-opacity="1" font-family="Calibri,Calibri_MSFontService,sans-serif" font-style="normal" font-variant="normal" font-weight="400" font-stretch="normal" font-size="50" text-anchor="start" direction="ltr" writing-mode="lr-tb" unicode-bidi="normal" text-decoration="none" transform="matrix(1 0 0 1 3090.07 1547)">elevation</text><text fill="#000000" fill-opacity="1" font-family="Calibri,Calibri_MSFontService,sans-serif" font-style="normal" font-variant="normal" font-weight="400" font-stretch="normal" font-size="55" text-anchor="start" direction="ltr" writing-mode="lr-tb" unicode-bidi="normal" text-decoration="none" transform="matrix(1 0 0 1 3752.11 616)">User provided</text><rect x="3515" y="667" width="823" height="1431" fill="#1787B3" fill-opacity="1"/><path d="M3396.5 862.063 3501.39 862.063 3501.39 868.938 3396.5 868.938ZM3496.81 851.75 3524.31 865.5 3496.81 879.25Z" fill="#1787B3" fill-rule="nonzero" fill-opacity="1"/><path d="M3394.56 1578.06 3492.72 1579.76 3492.6 1586.63 3394.44 1584.94ZM3488.31 1569.37 3515.57 1583.59 3487.84 1596.87Z" fill="#1787B3" fill-rule="nonzero" fill-opacity="1"/><rect x="3506" y="1756" width="407" height="383" fill="#E8E8E8" fill-opacity="1"/><text fill="#FFFFFF" fill-opacity="1" font-family="Calibri,Calibri_MSFontService,sans-serif" font-style="normal" font-variant="normal" font-weight="400" font-stretch="normal" font-size="50" text-anchor="start" direction="ltr" writing-mode="lr-tb" unicode-bidi="normal" text-decoration="none" transform="matrix(1 0 0 1 3616.66 1528)">Cell sites</text><text fill="#FFFFFF" fill-opacity="1" font-family="Calibri,Calibri_MSFontService,sans-serif" font-style="normal" font-variant="normal" font-weight="400" font-stretch="normal" font-size="50" text-anchor="start" direction="ltr" writing-mode="lr-tb" unicode-bidi="normal" text-decoration="none" transform="matrix(1 0 0 1 3532.43 1138)">Mobile coverage</text><text fill="#FFFFFF" fill-opacity="1" font-family="Calibri,Calibri_MSFontService,sans-serif" font-style="normal" font-variant="normal" font-weight="400" font-stretch="normal" font-size="50" text-anchor="start" direction="ltr" writing-mode="lr-tb" unicode-bidi="normal" text-decoration="none" transform="matrix(1 0 0 1 3579.15 783)">TRX network</text><path d="M1297 1365.75 1343.5 1365.75 1343.5 1347 1381 1384.5 1343.5 1422 1343.5 1403.25 1297 1403.25Z" fill="#66AEC4" fill-rule="evenodd" fill-opacity="1"/><text fill="#000000" fill-opacity="1" font-family="Calibri,Calibri_MSFontService,sans-serif" font-style="normal" font-variant="normal" font-weight="400" font-stretch="normal" font-size="55" text-anchor="start" direction="ltr" writing-mode="lr-tb" unicode-bidi="normal" text-decoration="none" transform="matrix(1 0 0 1 2982.98 621)">System provided</text><g><g><g><path d="M123.375 114.562 105.75 114.562 105.75 105.75 35.25 105.75 35.25 114.562 17.625 114.562 17.625 66.0937 19.5814 61.6875 8.8125 61.6875 8.8125 52.875 23.5029 52.875 35.25 26.4375 105.75 26.4375 117.497 52.875 132.187 52.875 132.187 61.6875 121.419 61.6875 123.375 66.0937 123.375 114.562ZM114.562 66.0937 26.4375 66.0937 26.4375 96.9375 114.562 96.9375 114.562 66.0937ZM41.8594 74.9062C45.5096 74.9062 48.4687 77.8654 48.4687 81.5156 48.4687 85.1658 45.5096 88.125 41.8594 88.125 38.2091 88.125 35.25 85.1658 35.25 81.5156 35.25 77.8654 38.2091 74.9062 41.8594 74.9062ZM99.1406 74.9062C102.791 74.9062 105.75 77.8654 105.75 81.5156 105.75 85.1658 102.791 88.125 99.1406 88.125 95.4904 88.125 92.5312 85.1658 92.5312 81.5156 92.5312 77.8654 95.4904 74.9062 99.1406 74.9062ZM100.022 35.25 40.9693 35.25 31.1786 57.2812 109.813 57.2812 100.022 35.25Z" fill="#FFFFFF" fill-rule="evenodd" fill-opacity="0.4" transform="matrix(1.00709 0 0 1 3121 837)"/></g></g></g><g><g><g><path d="M107.813 87.4145 107.813 96.1401C103.475 99.5758 99.5398 103.493 96.0826 107.813L86.9689 107.813C92.5823 99.7734 99.6512 92.8519 107.813 87.4145ZM65.6076 37.7704 66.427 38.1297 67.2607 38.4891 70.761 39.9266 74.6854 41.4719 85.4667 45.5688 88.8161 46.9201C91.4179 48.0054 93.5886 48.9973 95.6298 50.061 109.2 57.1263 106.124 72.8095 90.7854 85.6823 74.7501 99.1876 48.8032 107.813 18.9535 107.813 15.0003 107.841 11.0544 107.442 7.18751 106.627L7.18751 99.1876C11.0256 100.205 14.986 100.686 18.9535 100.625 47.1788 100.625 71.487 92.5392 86.1495 80.2342 98.1742 70.1717 100.057 60.5332 92.2948 56.5154L91.1592 55.9404 89.9733 55.3654 87.3929 54.201 84.4389 52.972 82.2107 52.0951 81.0104 51.6279 70.0135 47.4448 66.1898 45.8994C64.9823 45.3963 63.8179 44.9004 62.6751 44.3901 45.9066 37.986 32.2252 25.4043 24.4375 9.22876L23.5175 7.18751 31.4238 7.18751C38.6149 21.2822 50.8013 32.1857 65.6076 37.7704ZM28.175 35.4919C39.6643 43.2005 51.5812 50.2551 63.861 56.6304 73.0179 61.367 71.717 71.0485 62.7038 78.2935 51.2577 86.207 37.4829 90.0415 23.5966 89.1754 13.5772 88.9742 8.13626 80.5001 7.18751 68.8132L7.18751 60.7848C7.25939 59.7965 7.36001 58.7974 7.48939 57.7876 8.11829 51.3727 10.1811 45.1771 13.5269 39.6679 14.1342 38.3562 15.0183 37.1918 16.118 36.2538 17.2177 35.3158 18.5042 34.6222 19.895 34.2269 21.2858 33.8316 22.7449 33.7382 24.1716 33.9574 25.5983 34.1766 26.9639 34.6977 28.175 35.4919ZM19.4566 43.7144C16.7649 48.2893 15.1117 53.396 14.6122 58.6788 12.9375 72.0979 16.6031 81.8514 23.7188 81.9879 35.934 82.8073 48.0701 79.5334 58.2188 72.6873 63.7245 68.267 64.1773 64.8817 60.5763 63.0129 49.4429 57.2449 38.6077 50.9163 28.1175 44.0523L24.1932 41.4719 23.7188 41.2132C22.3891 40.5735 21.1457 41.2276 19.4566 43.7144ZM26.8238 52.6341 27.8013 52.6988C34.6258 54.4238 40.6993 58.3266 45.1088 63.8107 48.4223 68.9067 43.736 72.6729 37.2026 74.3692 34.8774 75.3179 32.3294 75.5982 29.8533 75.1814 27.3772 74.7645 25.0664 73.6612 23.1797 71.9973 19.1691 66.9085 20.6138 52.6485 26.8238 52.6341ZM28.52 60.2313 28.3404 61.2088 28.2325 62.0642C27.9163 63.9113 28.1247 65.8088 28.8363 67.541 30.9854 68.1951 33.2854 68.152 35.4057 67.4117 35.9951 67.2571 36.5736 67.0667 37.1379 66.8438L37.8566 66.5276 38.0076 66.4414 37.3751 65.8663C35.1505 63.9257 32.696 62.2654 30.0725 60.9142L28.9297 60.3751 28.52 60.2313ZM106.605 33.7813 107.813 34.0975 107.813 41.5366 104.765 40.7316C102.85 40.2141 100.999 39.693 99.2164 39.1647L93.9623 37.5691C70.1142 30.0438 55.7823 21.3397 49.3998 7.74814L49.1338 7.18751 57.2341 7.18751C64.2492 18.7235 80.227 26.5435 106.605 33.7813ZM107.813 15.5681 107.813 22.7557C95.673 22.0728 81.9376 16.5097 77.8336 7.18751L86.3939 7.18751C92.4134 12.2655 99.9459 15.2124 107.813 15.5681Z" fill="#FFFFFF" fill-rule="nonzero" fill-opacity="0.4" transform="matrix(1 0 0 1.0022 3130 1590.87)"/></g></g></g><path d="M2834 1365 2880 1365 2880 1346 2918 1384 2880 1422 2880 1403 2834 1403Z" fill="#66AEC4" fill-rule="evenodd" fill-opacity="1"/><path d="M3912.5 667.5 3912.5 2098.12" stroke="#E8E8E8" stroke-width="4.58333" stroke-linecap="butt" stroke-linejoin="miter" stroke-miterlimit="8" stroke-opacity="0.501961" fill="none" fill-rule="evenodd"/><path d="M3517.5 1039.5 3912.43 1039.5" stroke="#E8E8E8" stroke-width="4.58333" stroke-linecap="butt" stroke-linejoin="miter" stroke-miterlimit="8" stroke-opacity="0.501961" fill="none" fill-rule="evenodd"/><path d="M3517.5 1405.5 3912.43 1405.5" stroke="#E8E8E8" stroke-width="4.58333" stroke-linecap="butt" stroke-linejoin="miter" stroke-miterlimit="8" stroke-opacity="0.501961" fill="none" fill-rule="evenodd"/><path d="M2737.5 1924.5 3913.74 1924.5" stroke="#1787B3" stroke-width="6.875" stroke-linecap="butt" stroke-linejoin="miter" stroke-miterlimit="8" stroke-opacity="1" fill="none" fill-rule="evenodd"/><path d="M3913.5 1923.06 3940.1 1923.06 3940.1 1929.94 3913.5 1929.94ZM3935.52 1912.75 3963.02 1926.5 3935.52 1940.25Z" fill="#FFFFFF" fill-rule="nonzero" fill-opacity="1"/><path d="M3452.5 457.5 3452.5 2169.67" stroke="#000000" stroke-width="4.58333" stroke-linecap="butt" stroke-linejoin="miter" stroke-miterlimit="8" stroke-dasharray="18.3333 13.75" stroke-opacity="0.2" fill="none" fill-rule="evenodd"/><path d="M2737.5 1580.06 2960.33 1580.06 2960.33 1586.94 2737.5 1586.94ZM2955.74 1569.75 2983.24 1583.5 2955.74 1597.25Z" fill="#1787B3" fill-rule="nonzero" fill-opacity="1"/><path d="M2740.5 862.063 2960.97 862.063 2960.97 868.938 2740.5 868.938ZM2956.39 851.75 2983.89 865.5 2956.39 879.25Z" fill="#1787B3" fill-rule="nonzero" fill-opacity="1"/><path d="M2732.5 1227.06 3489.41 1227.06 3489.41 1233.94 2732.5 1233.94ZM3484.82 1216.75 3512.32 1230.5 3484.82 1244.25Z" fill="#1787B3" fill-rule="nonzero" fill-opacity="1"/><path d="M3869.5 1581.06 3940.7 1581.06 3940.7 1587.94 3869.5 1587.94ZM3936.12 1570.75 3963.62 1584.5 3936.12 1598.25Z" fill="#FFFFFF" fill-rule="nonzero" fill-opacity="1"/><path d="M3865.5 1227.06 3936.7 1227.06 3936.7 1233.94 3865.5 1233.94ZM3932.12 1216.75 3959.62 1230.5 3932.12 1244.25Z" fill="#FFFFFF" fill-rule="nonzero" fill-opacity="1"/><path d="M3862.5 859.062 3933.7 859.063 3933.7 865.938 3862.5 865.937ZM3929.12 848.75 3956.62 862.5 3929.12 876.25Z" fill="#FFFFFF" fill-rule="nonzero" fill-opacity="1"/><g><g><g><path d="M3678.26 1212.81 3684.58 1219.13C3674.88 1228.84 3668.88 1242.24 3668.88 1257.05 3668.88 1271.86 3674.88 1285.27 3684.58 1294.97L3678.26 1301.29C3666.94 1289.97 3659.94 1274.33 3659.94 1257.05 3659.94 1239.77 3666.94 1224.13 3678.26 1212.81ZM3766.74 1212.81C3778.06 1224.13 3785.06 1239.77 3785.06 1257.05 3785.06 1274.33 3778.06 1289.97 3766.74 1301.29L3760.42 1294.97C3770.12 1285.27 3776.12 1271.86 3776.12 1257.05 3776.12 1242.24 3770.12 1228.84 3760.42 1219.13L3766.74 1212.81ZM3747.78 1231.77C3754.25 1238.24 3758.25 1247.18 3758.25 1257.05 3758.25 1266.92 3754.25 1275.86 3747.78 1282.33L3741.46 1276.01C3746.31 1271.16 3749.31 1264.45 3749.31 1257.05 3749.31 1249.65 3746.31 1242.94 3741.46 1238.09L3747.78 1231.77ZM3697.22 1231.77 3703.54 1238.09C3698.69 1242.94 3695.69 1249.65 3695.69 1257.05 3695.69 1264.45 3698.69 1271.16 3703.54 1276.01L3697.22 1282.33C3690.75 1275.86 3686.75 1266.92 3686.75 1257.05 3686.75 1247.18 3690.75 1238.24 3697.22 1231.77ZM3722.5 1248.11C3727.44 1248.11 3731.44 1252.11 3731.44 1257.05 3731.44 1261.99 3727.44 1265.99 3722.5 1265.99 3717.56 1265.99 3713.56 1261.99 3713.56 1257.05 3713.56 1252.11 3717.56 1248.11 3722.5 1248.11Z" fill="#FFFFFF" fill-rule="evenodd" fill-opacity="0.4"/></g></g></g><text fill="#FFFFFF" fill-opacity="1" font-family="Calibri,Calibri_MSFontService,sans-serif" font-style="normal" font-variant="normal" font-weight="400" font-stretch="normal" font-size="50" text-anchor="start" direction="ltr" writing-mode="lr-tb" unicode-bidi="normal" text-decoration="none" transform="matrix(1 0 0 1 4037.19 1255)">Points of </text><text fill="#FFFFFF" fill-opacity="1" font-family="Calibri,Calibri_MSFontService,sans-serif" font-style="normal" font-variant="normal" font-weight="400" font-stretch="normal" font-size="50" text-anchor="start" direction="ltr" writing-mode="lr-tb" unicode-bidi="normal" text-decoration="none" transform="matrix(1 0 0 1 3980.2 1316)">Interest (POIs)</text><g><g><g><path d="M4117.5 1443.03C4109.54 1443.03 4103.03 1449.54 4103.03 1457.5 4103.03 1465.46 4109.54 1471.97 4117.5 1471.97 4125.46 1471.97 4131.97 1465.46 4131.97 1457.5 4131.97 1449.44 4125.46 1443.03 4117.5 1443.03ZM4117.5 1462.26C4114.88 1462.26 4112.74 1460.12 4112.74 1457.5 4112.74 1454.88 4114.88 1452.74 4117.5 1452.74 4120.12 1452.74 4122.26 1454.88 4122.26 1457.5 4122.26 1460.12 4120.12 1462.26 4117.5 1462.26Z" fill="#FFFFFF" fill-rule="nonzero" fill-opacity="0.4"/><path d="M4059.25 1515.75 4088.38 1515.75 4088.38 1486.62 4059.25 1486.62 4059.25 1515.75ZM4068.96 1496.33 4078.67 1496.33 4078.67 1506.04 4068.96 1506.04 4068.96 1496.33Z" fill="#FFFFFF" fill-rule="nonzero" fill-opacity="0.4"/><path d="M4146.62 1515.75 4175.75 1515.75 4175.75 1486.62 4146.62 1486.62 4146.62 1515.75ZM4156.33 1496.33 4166.04 1496.33 4166.04 1506.04 4156.33 1506.04 4156.33 1496.33Z" fill="#FFFFFF" fill-rule="nonzero" fill-opacity="0.4"/><path d="M4166.04 1457.5 4166.04 1438.08 4122.26 1420.61 4122.26 1413.42C4126.43 1411.68 4131.87 1412.74 4137.21 1413.91 4140.51 1414.59 4143.71 1415.27 4146.62 1415.27L4151.48 1415.27 4151.48 1386.14 4146.62 1386.14C4144.78 1386.14 4142.16 1385.56 4139.34 1384.98 4134.2 1383.91 4128.08 1382.65 4122.26 1383.81L4122.26 1379.83 4112.55 1379.83 4112.55 1420.61 4068.96 1438.08 4068.96 1457.5 4039.83 1457.5 4039.83 1535.17 4098.08 1535.17 4107.79 1535.17 4127.11 1535.17 4136.82 1535.17 4195.17 1535.17 4195.17 1457.5 4166.04 1457.5ZM4137.31 1394.49C4138.86 1394.78 4140.31 1395.17 4141.77 1395.37L4141.77 1404.88C4140.99 1404.69 4140.12 1404.49 4139.34 1404.4 4134.2 1403.23 4128.18 1402.07 4122.35 1403.13L4122.35 1394.1C4126.43 1392.36 4131.97 1393.33 4137.31 1394.49ZM4127.11 1525.46 4107.79 1525.46 4107.79 1496.33 4127.11 1496.33 4127.11 1525.46ZM4185.46 1525.46 4136.82 1525.46 4136.82 1486.62 4098.08 1486.62 4098.08 1525.46 4049.54 1525.46 4049.54 1467.21 4078.67 1467.21 4078.67 1444.59 4117.5 1429.05 4156.33 1444.59 4156.33 1467.21 4185.46 1467.21 4185.46 1525.46Z" fill="#FFFFFF" fill-rule="nonzero" fill-opacity="0.4"/></g></g></g><g><g><g><path d="M30.625 48.125C33.8704 48.125 36.9094 47.2416 39.5148 45.702L51.7492 57.9364C49.4588 61.3946 48.125 65.5415 48.125 70 48.125 74.4584 49.4588 78.6054 51.7492 82.0636L39.5149 94.2978C36.9095 92.7587 33.8704 91.8749 30.625 91.8749 20.96 91.8749 13.125 99.7097 13.125 109.375 13.125 119.04 20.96 126.875 30.625 126.875 40.29 126.875 48.125 119.04 48.125 109.375 48.125 106.13 47.2416 103.091 45.702 100.485L57.9364 88.2507C61.3945 90.5414 65.5415 91.8749 70 91.8749 74.4584 91.8749 78.6053 90.5414 82.0635 88.2507L94.2978 100.485C92.7587 103.091 91.8749 106.13 91.8749 109.375 91.8749 119.04 99.7097 126.875 109.375 126.875 119.04 126.875 126.875 119.04 126.875 109.375 126.875 99.7097 119.04 91.8749 109.375 91.8749 106.13 91.8749 103.091 92.7587 100.485 94.2978L88.2507 82.0636C90.5414 78.6054 91.8749 74.4584 91.8749 70 91.8749 65.5415 90.5414 61.3945 88.2507 57.9364L100.485 45.702C103.091 47.2416 106.13 48.125 109.375 48.125 119.04 48.125 126.875 40.29 126.875 30.625 126.875 20.96 119.04 13.125 109.375 13.125 99.7097 13.125 91.8749 20.96 91.8749 30.625 91.8749 33.8704 92.7587 36.9095 94.2978 39.5149L82.0636 51.7492C78.6054 49.4588 74.4584 48.125 70 48.125 65.5415 48.125 61.3945 49.4588 57.9363 51.7492L45.702 39.5149C47.2415 36.9095 48.125 33.8704 48.125 30.625 48.125 20.96 40.29 13.125 30.625 13.125 20.96 13.125 13.125 20.96 13.125 30.625 13.125 40.29 20.96 48.125 30.625 48.125ZM30.625 39.375C35.4574 39.375 39.375 35.4574 39.375 30.625 39.375 25.7925 35.4574 21.875 30.625 21.875 25.7925 21.875 21.875 25.7925 21.875 30.625 21.875 35.4574 25.7925 39.375 30.625 39.375ZM109.375 39.375C114.208 39.375 118.125 35.4574 118.125 30.625 118.125 25.7925 114.208 21.875 109.375 21.875 104.542 21.875 100.625 25.7925 100.625 30.625 100.625 35.4574 104.542 39.375 109.375 39.375ZM39.375 109.375C39.375 114.208 35.4574 118.125 30.625 118.125 25.7925 118.125 21.875 114.208 21.875 109.375 21.875 104.542 25.7925 100.625 30.625 100.625 35.4574 100.625 39.375 104.542 39.375 109.375ZM70 56.875C62.7512 56.875 56.875 62.7512 56.875 70 56.875 77.2487 62.7512 83.1249 70 83.1249 77.2487 83.1249 83.1249 77.2487 83.1249 70 83.1249 62.7512 77.2487 56.875 70 56.875ZM118.125 109.375C118.125 114.208 114.208 118.125 109.375 118.125 104.542 118.125 100.625 114.208 100.625 109.375 100.625 104.542 104.542 100.625 109.375 100.625 114.208 100.625 118.125 104.542 118.125 109.375Z" fill="#FFFFFF" fill-rule="evenodd" fill-opacity="0.4" transform="matrix(1 0 0 1.0022 3652 827.846)"/></g></g></g><g><g><g><path d="M124.084 135.834 103.166 88.2239 103.166 88.156 103.098 88.156 85.2356 47.5418 118.854 47.5418 122.25 47.5418 122.25 27.1667 115.459 27.1667 115.459 40.7501 84.896 40.7501 84.896 27.1667 78.1043 27.1667 78.1043 40.7501 47.5418 40.7501 47.5418 27.1667 40.7501 27.1667 40.7501 47.5418 44.2817 47.5418 77.7647 47.5418 38.9163 135.834 124.084 135.834ZM112.81 127.208 64.2493 105.611 98.9548 95.6948 112.81 127.208ZM62.5514 99.0227 69.9543 82.1793 91.416 90.7368 62.5514 99.0227ZM100.245 129.042 49.3755 129.042 57.6614 110.093 100.245 129.042ZM72.671 75.9989 81.5001 55.9634 94.0648 84.5564 72.671 75.9989Z" fill="#FFFFFF" fill-rule="nonzero" fill-opacity="0.4" transform="matrix(1.00613 0 0 1 3640 1547)"/></g></g></g><path d="M3260.5 1228.06 3423.04 1228.06 3423.04 1482.02 3419.6 1478.58 3488.95 1478.58 3488.95 1485.46 3416.16 1485.46 3416.16 1231.5 3419.6 1234.94 3260.5 1234.94ZM3484.37 1468.27 3511.87 1482.02 3484.37 1495.77Z" fill="#1787B3" fill-rule="nonzero" fill-opacity="1"/><text fill="#000000" fill-opacity="1" font-family="Calibri,Calibri_MSFontService,sans-serif" font-style="normal" font-variant="normal" font-weight="400" font-stretch="normal" font-size="46" text-anchor="start" direction="ltr" writing-mode="lr-tb" unicode-bidi="normal" text-decoration="none" transform="matrix(1 0 0 1 2058.05 636)">Technical</text><text fill="#000000" fill-opacity="1" font-family="Calibri,Calibri_MSFontService,sans-serif" font-style="normal" font-variant="normal" font-weight="400" font-stretch="normal" font-size="46" text-anchor="start" direction="ltr" writing-mode="lr-tb" unicode-bidi="normal" text-decoration="none" transform="matrix(1 0 0 1 2463.05 639)">Financial</text><path d="M1849.5 1926.5 2362.04 1926.5" stroke="#1787B3" stroke-width="6.875" stroke-linecap="butt" stroke-linejoin="miter" stroke-miterlimit="8" stroke-opacity="1" fill="none" fill-rule="evenodd"/><text fill="#000000" fill-opacity="1" font-family="Calibri,Calibri_MSFontService,sans-serif" font-style="normal" font-variant="normal" font-weight="400" font-stretch="normal" font-size="46" text-anchor="start" direction="ltr" writing-mode="lr-tb" unicode-bidi="normal" text-decoration="none" transform="matrix(1 0 0 1 1459.46 635)">(Select one or more)</text><text fill="#000000" fill-opacity="1" font-family="Calibri,Calibri_MSFontService,sans-serif" font-style="normal" font-variant="normal" font-weight="400" font-stretch="normal" font-size="46" text-anchor="start" direction="ltr" writing-mode="lr-tb" unicode-bidi="normal" text-decoration="none" transform="matrix(1 0 0 1 324.703 906)">(Select one)</text></g></g></svg>